<?xml version="1.0" encoding="utf-8"?>
<!-- Generator: Adobe Illustrator 19.0.0, SVG Export Plug-In . SVG Version: 6.00 Build 0)  -->
<svg version="1.1" id="图层_1" xmlns="http://www.w3.org/2000/svg" xmlns:xlink="http://www.w3.org/1999/xlink" x="0px" y="0px"
	 viewBox="20 32.4 200 191.8" style="enable-background:new 20 32.4 200 191.8;" xml:space="preserve">
<style type="text/css">
	.st0{fill:#FC552B;}
</style>
<path class="st0" d="M123.6,178.1L123.6,178.1c-1.5,0-3,0-4.5,0c-26.1-0.5-50.7-5.3-69.1-13.5c-19.6-8.7-30.2-20.4-30-33
	c0.2-12.2,10.8-23.3,29.7-31.2c17.7-7.4,41.4-11.5,66.6-11.5c1.5,0,3,0,4.5,0c26.1,0.5,50.7,5.3,69.1,13.5c19.6,8.7,30.2,20.4,30,33
	c-0.2,12.2-10.8,23.3-29.7,31.2C172.4,174,148.8,178.1,123.6,178.1 M116.3,97.4c-24.1,0-46.6,3.8-63.3,10.8
	c-15.4,6.4-24.4,15-24.5,23.6c-0.2,8.8,8.9,18,25,25.1c17.4,7.7,40.8,12.3,65.8,12.7c1.4,0,2.9,0,4.3,0h0c24.1,0,46.6-3.8,63.3-10.8
	c15.4-6.4,24.4-15,24.5-23.6c0.2-8.8-8.9-18-25-25.1c-17.4-7.7-40.8-12.3-65.8-12.7C119.2,97.4,117.7,97.4,116.3,97.4"/>
<path class="st0" d="M161.7,220.7c-11.1,0-24.5-6.1-38.9-17.5c-14.2-11.3-28.1-26.9-40.1-45.1c-14.4-21.8-24.4-44.7-28.1-64.5
	c-3.9-21.1-0.3-36.5,10.2-43.4c3.8-2.5,8.2-3.8,13.3-3.8c11.1,0,24.5,6.1,38.9,17.5c14.2,11.3,28.1,26.9,40.1,45.1
	c14.4,21.8,24.4,44.7,28.1,64.5c3.9,21.1,0.3,36.5-10.2,43.4C171.3,219.4,166.8,220.7,161.7,220.7 M78.1,54.8
	c-3.4,0-6.3,0.8-8.7,2.4C62.1,62,59.7,74.7,63,92c3.5,18.7,13,40.6,26.8,61.4c11.5,17.4,24.8,32.4,38.3,43.1
	c12.7,10.1,24.6,15.7,33.7,15.7c3.4,0,6.3-0.8,8.7-2.4c7.4-4.9,9.8-17.6,6.5-34.8c-3.5-18.7-13-40.6-26.8-61.4
	c-11.5-17.4-24.8-32.4-38.3-43.1C99.1,60.4,87.2,54.8,78.1,54.8"/>
<path class="st0" d="M83,223.9c-4.1,0-7.8-0.9-11.2-2.8c-11-6.1-15.9-21.1-13.6-42.4c2.1-20.1,10.2-43.7,22.8-66.6
	c13.7-25,31.4-46.2,48.5-58.2c1.9-1.3,4.5-0.9,5.9,1c1.3,1.9,0.9,4.5-1,5.9c-16.1,11.3-32.8,31.5-46,55.4
	c-12.1,21.9-19.8,44.4-21.8,63.4c-1.8,17.5,1.6,29.9,9.3,34.2c7.7,4.3,20.1,0.5,33.9-10.4c15-11.8,29.8-30.4,41.9-52.3
	c13.1-23.9,21.2-48.9,22.2-68.5c0.1-2.3,2.1-4.1,4.4-4c2.3,0.1,4.1,2.1,4,4.4c-1,20.9-9.5,47.2-23.2,72.2
	c-12.6,22.9-28.2,42.4-44.1,54.9C103.2,219.1,92.3,223.9,83,223.9"/>
<path class="st0" d="M142.7,53.6c0,5.5,2.3,11.1,6.2,15c3.9,3.9,9.4,6.2,15,6.2c5.5,0,11.1-2.3,15-6.2c3.9-3.9,6.2-9.4,6.2-15
	c0-5.5-2.3-11.1-6.2-15c-3.9-3.9-9.4-6.2-15-6.2c-5.5,0-11.1,2.3-15,6.2C145,42.6,142.7,48.1,142.7,53.6"/>
</svg>
