<?xml version="1.0" encoding="utf-8"?>
<!-- Generator: Adobe Illustrator 19.0.0, SVG Export Plug-In . SVG Version: 6.00 Build 0)  -->
<svg version="1.1" id="图层_1" xmlns="http://www.w3.org/2000/svg" xmlns:xlink="http://www.w3.org/1999/xlink" x="0px" y="0px"
	 viewBox="20 28.1 200 200" style="enable-background:new 20 28.1 200 200;" xml:space="preserve">
<style type="text/css">
	.st0{fill:#FC552B;}
</style>
<path class="st0" d="M120,30.3c-54.2,0-97.8,43.6-97.8,97.8s43.6,97.8,97.8,97.8c54.2,0,97.8-43.6,97.8-97.8S174.2,30.3,120,30.3z
	 M168.9,53.9c0,0.9,0,2.2,0,3.1c0,9.3-0.9,18.2-2.7,27.1c-6.2,1.3-10.7,6.7-10.7,12.9c0,3.6,1.3,7.1,4,9.3
	c-3.1,7.1-6.2,14.2-10.7,20.9c-16.4-18.7-28-42.2-32-68.4c10.2-6.2,21.3-11.1,32.9-14.2C156.4,46.8,163.1,49.9,168.9,53.9
	L168.9,53.9z M150.2,141.5c8,7.6,16.4,14.2,25.8,19.6c-9.3,1.8-19.1,2.7-29.3,2.7c-4.4,0-8.9-0.4-13.3-0.4c0-0.9,0-1.8-0.4-2.7
	C139.1,154.8,144.9,148.1,150.2,141.5L150.2,141.5z M120,39.2c4.9,0,9.8,0.4,14.7,1.3c-6.2,2.7-12.4,5.3-18.7,8.4
	c-0.4-3.1-0.4-6.2-0.4-9.3C116.9,39.2,118.7,39.2,120,39.2z M144,134.8c-4.9,6.7-10.2,12.4-16,18.2c-2.2-1.8-4.9-2.7-8-2.7
	c-5.8,0-10.7,3.6-12.4,8.9c-17.8-4.4-34.7-11.1-49.8-20.4c4-15.1,10.7-29.3,19.1-41.8c0.9,0,1.8,0.4,3.1,0.4
	c7.6,0,13.3-5.8,13.3-13.3c0-1.8-0.4-3.6-0.9-5.3c5.3-5.3,10.7-9.8,16.4-14.2C113.8,91.2,126.2,115.2,144,134.8L144,134.8z
	 M44.4,174.8c-8-13.3-12.9-28.4-13.3-44.9c5.3,4.4,10.7,8.9,16.4,12.4c-1.8,9.8-3.1,20-3.1,30.2C44.4,173.5,44.4,174.3,44.4,174.8
	L44.4,174.8z M50.2,133.5c-6.7-4.4-12.4-9.3-18.2-14.7c4.4-40,35.6-72,75.1-78.2c0,4.9,0.4,9.3,0.9,14.2
	c-7.6,5.3-14.7,11.1-21.3,17.3c-2.2-1.3-4.4-1.8-6.7-1.8c-7.6,0-13.3,5.8-13.3,13.3c0,3.1,1.3,5.8,3.1,8.4
	C60.9,104.6,54.2,118.3,50.2,133.5L50.2,133.5z M54.2,187.7c-0.4-4.9-0.9-9.8-0.9-15.1c0-8.4,0.9-16.9,2.7-24.9
	c16,9.3,33.3,16.4,51.6,20.4c0,0.4,0,0.4,0.4,0.9c-15.6,10.2-33.3,16.9-52.4,20C54.7,188.6,54.7,188.1,54.2,187.7L54.2,187.7z
	 M120,217c-21.8,0-41.3-8-56.9-20.9c18.7-3.6,35.6-10.7,50.7-20.9c1.8,1.3,4,1.8,6.2,1.8c4.4,0,8-2.2,10.7-5.3
	c5.3,0.4,10.7,0.9,16,0.9c14.2,0,28-1.8,41.3-4.9c3.1,1.3,6.2,3.1,9.3,4C182.2,198.8,153.3,217,120,217z M188.9,158.3
	c-12.4-6.2-24-14.7-33.8-24.4c4.9-7.6,8.9-15.6,12.4-23.6c0.4,0,0.9,0,1.3,0c7.6,0,13.3-5.8,13.3-13.3c0-5.3-3.1-9.8-7.6-12
	c1.8-8,2.7-16,2.7-24.4c19.1,16.4,31.1,40.4,31.1,67.6c0,8.9-1.3,16.9-3.6,24.9C200,155.2,194.7,157,188.9,158.3L188.9,158.3z"/>
</svg>
