<?xml version="1.0" encoding="utf-8"?>
<!-- Generator: Adobe Illustrator 19.0.0, SVG Export Plug-In . SVG Version: 6.00 Build 0)  -->
<svg version="1.1" id="图层_1" xmlns="http://www.w3.org/2000/svg" xmlns:xlink="http://www.w3.org/1999/xlink" x="0px" y="0px"
	 viewBox="20 28.1 200 200" style="enable-background:new 20 28.1 200 200;" xml:space="preserve">
<style type="text/css">
	.st0{fill:#FC552B;}
</style>
<g>
	<path class="st0" d="M199.9,130.7c-3.1,0-5.5-0.9-7.2-2.6c-1.8-1.8-2.7-4.3-2.7-7.6c0-3.8,2.6-6.5,4.9-8l0.4-23.6l-76.9-44.3
		L42.3,88.2l0,23.7l-11.8,0l0-30.8l88.1-49.9L206,81.6l-0.2,31.4c1.5,1.4,3.8,4.1,3.8,7.6C209.6,126.7,205.8,130.7,199.9,130.7
		L199.9,130.7z"/>
	<path class="st0" d="M34,175.3l0.5-31.4c-1.6-1.4-4.1-4.1-4.1-7.6c0-6.2,3.8-10.1,9.7-10.1c3.1,0,5.5,0.9,7.2,2.6
		c1.8,1.8,2.7,4.3,2.7,7.6c0,3.8-2.6,6.5-4.9,8L44.7,168l76.9,44.3l76.1-43.7l0-23.7h11.8l0,30.8l-88.1,49.9L34,175.3z"/>
	<path class="st0" d="M120.1,144.1c-1.6,0-3.1-0.5-4.4-1.4c-0.8-0.5-42.7-28-44.5-29.1c-0.6-0.4-2.4-1.6-2.5-3.8
		c-0.1-1.1,0.3-2.8,2.5-4.3c0,0,38.2-24.6,46.5-30c0.9-0.7,2-1,3-1c1.6,0,2.7,0.7,3.2,1l44.4,29.4c2.5,1.5,3,3.3,3.1,4.5
		c0,2.7-2.3,4.3-3,4.6l-44.3,29C123.8,143.2,122.3,144.1,120.1,144.1z M84.3,109.5c14.4,9.5,33.3,22,34.9,22.8l0.1,0.1
		c0.3,0.2,0.5,0.2,0.8,0.2l0,0c0.4,0,0.8-0.2,0.8-0.2l35.1-23L120.7,86c0,0-0.1,0-0.1,0.1l-0.1,0.1L84.3,109.5z"/>
	<path class="st0" d="M119.1,183.3c-1.5,0-3-0.6-4.2-1.6c-3.2-2.1-40.5-26.1-42.4-27.4c-0.7-0.4-3.6-2.2-3.9-5.4
		c-0.2-1.6,0.3-4.1,3.5-6.6l0.1-0.1c2.3-1.7,15-10.7,15.5-11.1l2.3-1.6l7.4,10.2l-13.6,9.1c9.4,6,33.8,21.5,35.2,22.4
		c0.2,0.1,0.3,0.1,0.3,0.1c0.1,0,0.1,0,0.2,0l36.9-22.9c-2.3-1.6-7.2-5.1-7.9-5.5l-2.3-1.6l6.4-9.5l15.7,11.4c2.9,2,3.4,4.1,3.3,5.6
		c-0.1,3.3-3.2,5.2-3.9,5.6l-44.6,27.6C122.4,182.5,121,183.3,119.1,183.3z"/>
</g>
</svg>
