<svg height="480pt" viewBox="0 0 480 480" width="480pt" xmlns="http://www.w3.org/2000/svg"><path d="m400 400c-13.253906 0-24 10.746094-24 24s10.746094 24 24 24 24-10.746094 24-24-10.746094-24-24-24zm0 32c-4.417969 0-8-3.582031-8-8s3.582031-8 8-8 8 3.582031 8 8-3.582031 8-8 8zm0 0"/><path d="m472 176h-56c-3.046875-.015625-5.839844 1.699219-7.199219 4.425781l-61.746093 123.574219h-35.054688c-13.253906 0-24 10.746094-24 24v80h-264c-4.417969 0-8-3.582031-8-8v-8c0-4.417969 3.582031-8 8-8h160c13.253906 0 24-10.746094 24-24s-10.746094-24-24-24h-72v-16h16c4.417969 0 8-3.582031 8-8v-16c4.417969 0 8-3.582031 8-8v-17.007812c36.804688-5.808594 63.933594-37.5 64-74.761719v-88.933594c-.011719-10.652344-8.644531-19.285156-19.296875-19.296875h-4.703125v-80c0-4.417969-3.582031-8-8-8h-24c-4.417969 0-8 3.582031-8 8v80h-80v-80c0-4.417969-3.582031-8-8-8h-24c-4.417969 0-8 3.582031-8 8v80h-4.703125c-10.652344.011719-19.2851562 8.644531-19.296875 19.296875v88.933594c.0664062 37.261719 27.195312 68.953125 64 74.761719v17.007812c0 4.417969 3.582031 8 8 8v16c0 4.417969 3.582031 8 8 8h16v24c0 4.417969 3.582031 8 8 8h80c4.417969 0 8 3.582031 8 8s-3.582031 8-8 8h-160c-13.253906 0-24 10.746094-24 24v8c0 13.253906 10.746094 24 24 24h264c0 4.417969 3.582031 8 8 8h48.640625c3.953125 27.535156 27.542969 47.976562 55.359375 47.976562s51.40625-20.441406 55.359375-47.976562h16.640625c4.417969 0 8-3.582031 8-8v-240c0-4.417969-3.582031-8-8-8zm-312-160h8v96h-8zm-120 0h8v96h-8zm-24 180.230469v-88.933594c.023438-1.8125 1.484375-3.273437 3.296875-3.296875h4.703125v16c0 4.417969 3.582031 8 8 8h24c4.417969 0 8-3.582031 8-8v-16h80v16c0 4.417969 3.582031 8 8 8h24c4.417969 0 8-3.582031 8-8v-16h4.703125c1.8125.023438 3.273437 1.484375 3.296875 3.296875v88.933594c-.039062 32.992187-26.777344 59.730469-59.769531 59.769531h-56.460938c-32.992187-.039062-59.730469-26.777344-59.769531-59.769531zm64 83.769531v-8h48v8c-4.417969 0-8 3.582031-8 8v16h-32v-16c0-4.417969-3.582031-8-8-8zm340.945312-88h43.054688v112h-99.054688zm-116.945312 136c0-4.417969 3.582031-8 8-8h8v16h-16zm96 136c-22.089844 0-40-17.910156-40-40s17.910156-40 40-40 40 17.910156 40 40c-.027344 22.082031-17.917969 39.972656-40 40zm64-48h-8.640625c-3.953125-27.535156-27.542969-47.976562-55.359375-47.976562s-51.40625 20.441406-55.359375 47.976562h-40.640625v-64h24c4.417969 0 8-3.582031 8-8v-24h128zm0 0"/><path d="m80.304688 229.808594c-1 3.503906.496093 7.242187 3.640624 9.089844 3.140626 1.847656 7.132813 1.335937 9.710938-1.242188l80-80c2.285156-2.289062 2.972656-5.730469 1.734375-8.71875s-4.15625-4.9375-7.390625-4.9375h-43.054688l10.253907-20.425781c1.242187-2.484375 1.105469-5.4375-.363281-7.800781-1.46875-2.359376-4.054688-3.789063-6.835938-3.773438h-32c-2.582031.003906-5.003906 1.25-6.503906 3.351562l-40 56c-1.738282 2.4375-1.972656 5.644532-.601563 8.308594 1.367188 2.660156 4.109375 4.335938 7.105469 4.339844h37.390625zm-8.761719-61.808594 28.578125-40h14.933594l-10.214844 20.425781c-1.238282 2.480469-1.105469 5.425781.351562 7.78125 1.460938 2.359375 4.035156 3.792969 6.808594 3.792969h36.6875l-44.519531 44.511719 7.527343-26.320313c.6875-2.414062.203126-5.007812-1.308593-7.011718-1.511719-2.003907-3.878907-3.179688-6.386719-3.179688zm0 0"/><path d="m248 120h32.625c13.3125 34.132812 46.382812 56.4375 83.015625 55.992188 36.632813-.445313 69.152344-23.546876 81.632813-57.992188.527343-.46875.992187-1.007812 1.382812-1.601562l32-48c1.617188-2.453126 1.757812-5.59375.367188-8.183594-1.390626-2.585938-4.085938-4.207032-7.023438-4.214844h-32.625c-13.351562-34.207031-46.554688-56.519531-83.273438-55.9570312-36.71875.5625002-69.222656 23.8750002-81.527343 58.4765622-.390625.367188-.902344.585938-1.207031 1.039063l-32 48c-1.632813 2.453125-1.789063 5.605468-.402344 8.203125 1.386718 2.601562 4.089844 4.230469 7.035156 4.238281zm192-22.398438-17.054688-25.601562h34.109376zm-82.558594-81.601562c27.367188-.074219 52.390625 15.445312 64.488282 40h-13.929688c-2.949219 0-5.664062 1.625-7.054688 4.226562-1.390624 2.601563-1.238281 5.757813.398438 8.214844l29.054688 43.628906c-9.671876 27.234376-34.691407 46.042969-63.539063 47.769532-28.847656 1.726562-55.929687-13.957032-68.789063-39.839844h13.929688c2.949219 0 5.664062-1.625 7.054688-4.226562 1.390624-2.601563 1.238281-5.757813-.398438-8.214844l-29.054688-43.628906c10.1875-28.726563 37.359376-47.921876 67.839844-47.929688zm-77.441406 62.398438 17.054688 25.601562h-34.109376zm0 0"/><path d="m336 88h25.863281l-16.71875 27.878906 13.710938 8.242188 24-40c1.484375-2.472656 1.527343-5.550782.105469-8.058594-1.417969-2.511719-4.078126-4.0625-6.960938-4.0625h-24l14.398438-19.199219-12.796876-9.601562-24 32c-1.820312 2.425781-2.113281 5.667969-.757812 8.378906s4.125 4.421875 7.15625 4.421875zm0 0"/></svg>