<?xml version="1.0" encoding="iso-8859-1"?>
<!-- Generator: Adobe Illustrator 19.0.0, SVG Export Plug-In . SVG Version: 6.00 Build 0)  -->
<svg xmlns="http://www.w3.org/2000/svg" xmlns:xlink="http://www.w3.org/1999/xlink" version="1.1" id="Layer_1" x="0px" y="0px" viewBox="0 0 512 512" style="enable-background:new 0 0 512 512;" xml:space="preserve" width="512" height="512">
<g id="XMLID_1014_">
	<g id="XMLID_1791_">
		<g id="XMLID_704_">
			<path id="XMLID_1170_" d="M462,239H273V50c0-5.522-4.478-10-10-10C147.757,40,54,133.757,54,249     c0,12.751,1.167,25.497,3.451,37.955c-6.981,5.941-12.213,13.98-14.657,23.329l-9.585,36.674l-0.249-0.456     c-1.752-3.214-5.12-5.214-8.78-5.214H10c-5.522,0-10,4.478-10,10s4.478,10,10,10h8.242l4.002,7.341     C9.042,375.494,0,389.293,0,405.173v41.069c0,14.204,11.556,25.76,25.76,25.76h8.902v16.99c0,12.687,10.321,23.008,23.009,23.008     h11.062c12.687,0,23.008-10.321,23.008-23.008v-16.99h120.433v16.99c0,12.687,10.321,23.008,23.009,23.008h11.062     c12.687,0,23.008-10.321,23.008-23.008v-16.99h8.989c11.422,0,21.126-7.475,24.491-17.788     c46.101-8.888,88.159-33.3,118.954-69.194C454.131,347.201,472,298.896,472,249C472,243.478,467.522,239,462,239z      M62.144,315.342c2.978-11.387,13.276-19.34,25.045-19.34h129.616c11.784,0,22.086,7.966,25.053,19.37l12.647,48.63H49.425     L62.144,315.342z M71.74,488.992c0,1.658-1.35,3.008-3.008,3.008H57.671c-1.659,0-3.009-1.35-3.009-3.008v-16.99H71.74V488.992z      M249.251,488.992c0,1.658-1.35,3.008-3.008,3.008h-11.062c-1.659,0-3.009-1.35-3.009-3.008v-16.99h17.078V488.992z M284,446.242     c0,3.176-2.584,5.76-5.76,5.76h-18.989H25.76c-3.176,0-5.76-2.584-5.76-5.76v-41.069c0-11.674,9.497-21.171,21.171-21.171     h221.658c11.674,0,21.171,9.497,21.171,21.171V446.242z M304,433.54v-28.368c0-15.88-9.042-29.679-22.244-36.544l4.002-7.341H294     c5.522,0,10-4.478,10-10s-4.478-10-10-10h-14.18c-3.66,0-7.028,2-8.78,5.214l-0.286,0.524l-9.542-36.688     c-5.258-20.217-23.52-34.336-44.408-34.336H87.188c-3.798,0-7.508,0.473-11.07,1.359C74.713,268.009,74,258.507,74,249     c0-100.863,79.412-183.525,179-188.738V249c0,5.522,4.478,10,10,10h188.743C447.352,344.192,387.134,415.285,304,433.54z"/>
			<path id="XMLID_1199_" d="M401.569,216.069c1.87-1.859,2.931-4.439,2.931-7.069s-1.061-5.21-2.931-7.07     c-1.859-1.86-4.43-2.93-7.069-2.93c-2.63,0-5.21,1.069-7.07,2.93s-2.93,4.44-2.93,7.07s1.069,5.21,2.93,7.069     c1.86,1.86,4.44,2.931,7.07,2.931C397.14,219,399.71,217.93,401.569,216.069z"/>
			<path id="XMLID_1230_" d="M303,0c-5.522,0-10,4.478-10,10v199c0,5.522,4.478,10,10,10h51.501c5.522,0,10-4.478,10-10     s-4.478-10-10-10H313V20.262c96.278,5.04,173.698,82.46,178.738,178.738H437.09c-5.522,0-10,4.478-10,10s4.478,10,10,10H502     c5.522,0,10-4.478,10-10C512,93.757,418.243,0,303,0z"/>
			<path id="XMLID_1231_" d="M53.13,408c-2.63,0-5.21,1.069-7.07,2.93c-1.87,1.86-2.93,4.44-2.93,7.07s1.06,5.21,2.93,7.069     c1.86,1.87,4.44,2.931,7.07,2.931s5.21-1.061,7.07-2.931c1.859-1.859,2.93-4.43,2.93-7.069c0-2.63-1.07-5.21-2.93-7.07     C58.34,409.069,55.76,408,53.13,408z"/>
			<path id="XMLID_1242_" d="M210.872,408.002H93.998c-5.522,0-10,4.478-10,10s4.478,10,10,10h116.874c5.522,0,10-4.478,10-10     S216.395,408.002,210.872,408.002z"/>
			<path id="XMLID_1244_" d="M250.87,408c-2.63,0-5.21,1.069-7.07,2.93s-2.93,4.44-2.93,7.07c0,2.64,1.069,5.21,2.93,7.069     c1.86,1.86,4.44,2.931,7.07,2.931c2.64,0,5.21-1.07,7.069-2.931c1.87-1.859,2.931-4.439,2.931-7.069s-1.061-5.21-2.931-7.07     C256.08,409.069,253.5,408,250.87,408z"/>
		</g>
	</g>
</g>















</svg>
