<?xml version="1.0" encoding="utf-8"?>
<!-- Generator: Adobe Illustrator 19.0.0, SVG Export Plug-In . SVG Version: 6.00 Build 0)  -->
<svg version="1.1" id="图层_1" xmlns="http://www.w3.org/2000/svg" xmlns:xlink="http://www.w3.org/1999/xlink" x="0px" y="0px"
	 viewBox="20 32.4 200 191.8" style="enable-background:new 20 32.4 200 191.8;" xml:space="preserve">
<style type="text/css">
	.st0{fill:#FC552B;}
</style>
<path class="st0" d="M202.3,174.2l-71.8-61.5c2.9-6.5,4.4-13.6,4.4-20.7c0-28.2-22.9-51.1-51.1-51.1c-5,0-10,0.7-14.8,2.2
	c-1.5,0.5-2.7,1.7-3.1,3.3c-0.4,1.5,0.1,3.2,1.2,4.3l26.9,26.9c1.1,1.1,1.7,2.5,1.7,4.1c0,1.6-0.6,3-1.7,4.1l-16.4,16.4
	c-2.1,2.1-6.1,2.1-8.2,0L42.5,75.3c-1.1-1.1-2.8-1.6-4.3-1.2c-1.5,0.4-2.8,1.6-3.2,3.1C33.4,82,32.7,87,32.7,92
	c0,28.2,22.9,51.1,51.1,51.1c7.1,0,14.2-1.5,20.7-4.4l61.5,71.8c2.7,3.2,6.6,5,10.7,5c3.7,0,7.3-1.5,10-4.2l16.4-16.4
	c2.9-2.9,4.3-6.6,4.2-10.5C207.1,180.5,205.4,176.8,202.3,174.2z M168.8,182.2c0.9-0.9,1.4-2.1,1.4-3.3c0-1.3-0.5-2.4-1.4-3.3
	c-1.8-1.8-4.9-1.8-6.6,0l-7.6,7.6l-4.6-5.3l11.7-11.2c1.9-1.8,1.9-4.8,0.1-6.6c-1.7-1.8-4.8-1.9-6.6-0.1l-11.3,10.9l-5-5.9l6.5-6.5
	c0.9-0.9,1.4-2.1,1.4-3.3c0-1.2-0.5-2.4-1.4-3.3c-1.8-1.8-4.9-1.8-6.6,0l-6,6l-23.7-27.6c-1.4-1.6-3.8-2-5.6-1.1
	c-6,3.2-12.8,4.9-19.7,4.9c-23.2,0-42-18.8-42-42c0-1.4,0.1-2.9,0.2-4.3l20.9,20.9c2.8,2.8,6.5,4.3,10.5,4.3c4,0,7.7-1.5,10.5-4.3
	l16.4-16.4c2.8-2.8,4.4-6.5,4.4-10.5c0-4-1.5-7.7-4.4-10.5L79.5,50.3c1.4-0.1,2.9-0.2,4.3-0.2c23.2,0,42,18.8,42,42
	c0,6.9-1.7,13.7-4.9,19.7c-1,1.9-0.5,4.2,1.1,5.6l74.4,63.8c1.1,0.9,1.8,2.2,1.8,3.6c0.1,1.4-0.5,2.7-1.5,3.7l-16.4,16.4
	c-2,2-5.5,1.8-7.4-0.3l-12.2-14.3L168.8,182.2z"/>
</svg>
