<?xml version="1.0" encoding="utf-8"?>
<!-- Generator: Adobe Illustrator 19.0.0, SVG Export Plug-In . SVG Version: 6.00 Build 0)  -->
<svg version="1.1" id="图层_1" xmlns="http://www.w3.org/2000/svg" xmlns:xlink="http://www.w3.org/1999/xlink" x="0px" y="0px"
	 viewBox="20 32.4 200 191.8" style="enable-background:new 20 32.4 200 191.8;" xml:space="preserve">
<style type="text/css">
	.st0{fill:#FC552B;}
</style>
<path class="st0" d="M190,158.2h-51c-6,0-10,4-10,10v10H74c-12,0-22-10-22-22s10-22,22-22h16c0,0,0,1,1,1l22,23c2,2,4,3,6,3s5-1,6-3
	l23-23l1-1h18c17-2,30-16,30-33s-13-31-30-33h-56v-10c0-6-4-10-10-10H50c-6,0-10,5-10,10v30c0,6,4,10,10,10h51c6,0,10-4,10-10v-9h53
	c12,0,22,10,22,22s-10,22-22,22h-14c0,0,0-1-1-1l-23-22c-1-2-4-3-6-3c-3,0-5,1-7,3l-22,22H71c-17,2-30,16-30,33s13,31,30,33h58v10
	c0,6,4,10,10,10h51c6,0,10-4,10-10v-30C200,162.2,195,158.2,190,158.2z M188,169.2v27h-48v-27H188z M101,129.2l19-20l19,19l-19,20
	C120,148.2,101,129.2,101,129.2z M99,60.2v27H51v-27C51,60.2,99,60.2,99,60.2z"/>
</svg>
