<?xml version="1.0" encoding="utf-8"?>
<!-- Generator: Adobe Illustrator 19.0.0, SVG Export Plug-In . SVG Version: 6.00 Build 0)  -->
<svg version="1.1" id="图层_1" xmlns="http://www.w3.org/2000/svg" xmlns:xlink="http://www.w3.org/1999/xlink" x="0px" y="0px"
	 viewBox="20 32.4 200 191.8" style="enable-background:new 20 32.4 200 191.8;" xml:space="preserve">
<style type="text/css">
	.st0{fill:#FC552B;}
</style>
<path class="st0" d="M86.2,53.2L86.2,53.2l0,37.4H46V53.3l0,0L86.2,53.2L86.2,53.2z M86.3,40.7H46c-7.4,0-13.5,5.6-13.5,12.5v37.4
	c0,6.9,6.1,12.5,13.5,12.5h40.3c7.4,0,13.5-5.6,13.5-12.5V53.2C99.8,46.4,93.7,40.7,86.3,40.7z M194,53.2L194,53.2l0,37.4h-40.3
	V53.3l0,0L194,53.2L194,53.2z M194,40.7h-40.3c-7.4,0-13.5,5.6-13.5,12.5v37.4c0,6.9,6.1,12.5,13.5,12.5H194
	c7.4,0,13.5-5.6,13.5-12.5V53.2C207.5,46.4,201.4,40.7,194,40.7z M194,165.8L194,165.8l0,37.4l0,0h-40.3l0,0v-37.4L194,165.8
	L194,165.8z M194,153.3h-40.3c-7.4,0-13.5,5.6-13.5,12.5v37.4c0,6.9,6.1,12.5,13.5,12.5H194c7.4,0,13.5-5.6,13.5-12.5v-37.4
	C207.5,159,201.4,153.3,194,153.3L194,153.3z M86.3,165.8L86.3,165.8l0,37.4l0,0H46l0,0v-37.4L86.3,165.8L86.3,165.8z M86.3,153.3
	H46c-7.4,0-13.5,5.6-13.5,12.5v37.4c0,6.9,6.1,12.5,13.5,12.5h40.3c7.4,0,13.5-5.6,13.5-12.5v-37.4C99.8,159,93.8,153.3,86.3,153.3
	L86.3,153.3z M65.8,164.7c-3.7,0-6.8-2.8-6.8-6.2V97.1c0-3.4,3-6.2,6.8-6.2s6.8,2.8,6.8,6.2v61.3C72.5,161.9,69.5,164.7,65.8,164.7
	L65.8,164.7z M146.7,190.8H93.4c-3.7,0-6.7-2.8-6.7-6.2c0-3.5,3-6.3,6.8-6.3h53.3c3.7,0,6.8,2.8,6.8,6.2
	C153.4,188,150.4,190.8,146.7,190.8L146.7,190.8z M173.7,165.1c-3.7,0-6.7-2.8-6.7-6.2V97.2c0-3.5,3-6.2,6.8-6.2
	c3.7,0,6.7,2.8,6.7,6.2v61.6C180.5,162.3,177.5,165.1,173.7,165.1L173.7,165.1z M146.7,78.2H93.2c-3.7,0-6.7-2.8-6.7-6.2
	c0-3.5,3-6.2,6.7-6.2h53.5c3.7,0,6.8,2.8,6.8,6.2C153.4,75.4,150.4,78.2,146.7,78.2z"/>
</svg>
