<?xml version="1.0" encoding="utf-8"?>
<!-- Generator: Adobe Illustrator 19.0.0, SVG Export Plug-In . SVG Version: 6.00 Build 0)  -->
<svg version="1.1" id="Capa_1" xmlns="http://www.w3.org/2000/svg" xmlns:xlink="http://www.w3.org/1999/xlink" x="0px" y="0px"
	 viewBox="176 -128.9 512 512" style="enable-background:new 176 -128.9 512 512;" xml:space="preserve">
<style type="text/css">
	.st0{fill:#FC552B;}
</style>
<g>
	<path class="st0" d="M568,71.1v64h112v-64H568z M663,118.1h-78v-30h78V118.1z"/>
	<path class="st0" d="M184,71.1v64h112v-64H184z M279,118.1h-78v-30h78V118.1z"/>
	<path class="st0" d="M424,87.1v48h16v-48h80v-96h96v44.7l-18.3-18.3l-11.3,11.3l37.7,37.7l37.7-37.7l-11.3-11.3l-18.3,18.3v-60.7
		h-112v-96H396.9l-52.7,52.7v43.3h-112v60.7l-18.3-18.3l-11.3,11.3l37.7,37.7L278,28.8l-11.3-11.3l-18.3,18.3V-8.9h96v96H424z
		 M504,71.1H360v-128h48v-48h96V71.1z M371.3-72.9L392-93.6v20.7H371.3z"/>
	<g>
		<path class="st0" d="M432,199.1c-13.2,0-24,10.8-24,24c0,13.2,10.8,24,24,24s24-10.8,24-24S445.2,199.1,432,199.1z"/>
		<path class="st0" d="M520,201.4l-19.7-6.5l9.3-18.5l-30.8-30.8l-18.5,9.3l-6.5-19.6h-43.5l-6.5,19.7l-18.5-9.3l-30.8,30.8
			l9.3,18.5l-19.6,6.5V245l19.7,6.5l-9.3,18.5l30.8,30.8l18.5-9.3l6.5,19.6h43.5l6.5-19.7l18.5,9.3l30.8-30.8l-9.3-18.5l19.6-6.5
			V201.4z M432,263.1c-22.1,0-40-17.9-40-40s17.9-40,40-40s40,17.9,40,40S454.1,263.1,432,263.1z"/>
	</g>
	<g>
		<rect x="376" y="23.1" class="st0" width="112" height="16"/>
		<rect x="424" y="-72.9" class="st0" width="64" height="16"/>
		<rect x="376" y="-8.9" class="st0" width="112" height="16"/>
		<rect x="424" y="-40.9" class="st0" width="64" height="16"/>
	</g>
	<path class="st0" d="M632,264.3V135.1h-16v80h-96v16h32v97.5c-9.3,3.3-16,12.1-16,22.5c0,13.2,10.8,24,24,24s24-10.8,24-24
		c0-10.4-6.7-19.2-16-22.5v-97.5h48v33.1c-13.8,3.6-24,16-24,30.9c0,17.6,14.4,32,32,32s32-14.4,32-32
		C656,280.3,645.8,267.9,632,264.3z M560,359.1c-4.4,0-8-3.6-8-8s3.6-8,8-8s8,3.6,8,8S564.4,359.1,560,359.1z M624,311.1
		c-8.8,0-16-7.2-16-16s7.2-16,16-16s16,7.2,16,16C640,304,632.8,311.1,624,311.1z"/>
	<path class="st0" d="M248,135.1h-16v129.1c-13.8,3.6-24,16-24,30.9c0,17.6,14.4,32,32,32s32-14.4,32-32c0-14.9-10.2-27.3-24-30.9
		v-33.1h48v97.5c-9.3,3.3-16,12.1-16,22.5c0,13.2,10.8,24,24,24s24-10.8,24-24c0-10.4-6.7-19.2-16-22.5v-97.5h32v-16h-96V135.1z
		 M304,359.1c-4.4,0-8-3.6-8-8s3.6-8,8-8s8,3.6,8,8S308.4,359.1,304,359.1z M256,295.1c0,8.8-7.2,16-16,16s-16-7.2-16-16
		s7.2-16,16-16S256,286.3,256,295.1z"/>
</g>
</svg>
