<?xml version="1.0" encoding="utf-8"?>
<!-- Generator: Adobe Illustrator 19.0.0, SVG Export Plug-In . SVG Version: 6.00 Build 0)  -->
<svg version="1.1" id="Capa_1" xmlns="http://www.w3.org/2000/svg" xmlns:xlink="http://www.w3.org/1999/xlink" x="0px" y="0px"
	 viewBox="176 -128.9 512 512" style="enable-background:new 176 -128.9 512 512;" xml:space="preserve">
<style type="text/css">
	.st0{fill:#FC552B;}
</style>
<g>
	<g>
		<path class="st0" d="M631.1,270.8c-3.9,0-7.2-3.3-7.2-7.2v-34.1h-67.3V215h74.5c3.9,0,7.2,3.3,7.2,7.2v41.3
			C638.4,267.6,635.1,270.8,631.1,270.8z"/>
	</g>
	<path class="st0" d="M262.7-16.5c-3.9,0-7.2,3.3-7.2,7.2v46.1h14.4V-9.3C269.8-13.3,266.6-16.5,262.7-16.5z"/>
	<g>
		<path class="st0" d="M493.3-16.5v-59.1c0-3.9,3.3-7.2,7.2-7.2h34.6c3.9,0,7.2,3.3,7.2,7.2c0,3.9-3.3,7.2-7.2,7.2h-27.4v51.9H493.3
			z"/>
	</g>
	<path class="st0" d="M418.3-44.2c-3.3-0.1-6,2.5-6,5.8c-0.1,31.2-0.1,175.7,0.1,177.4c0.3,3.1,2.9,5.5,6,5.5h176.3l0,0
		c3.3,0,5.9-2.7,5.8-5.9C597.3,39.1,517.5-40.8,418.3-44.2z M434,122.6C433.9,90.3,433.9,17,434-21c74.4,10,133.5,69.3,143.2,143.6
		H434z"/>
	<path class="st0" d="M561.6,178.1H379.1l0.3-0.3V-4.8c0-3.4-2.8-6.1-6.1-6C271.9-7.6,190.7,75.7,190.7,177.8
		c0,52.1,21,99.2,55.1,133.4l-0.4,0.4c34.1,34.1,81.4,55.2,133.5,55.2c102.2,0,185.4-81.3,188.6-182.7
		C567.6,180.8,564.9,178.1,561.6,178.1z M495.1,297.9c-31.3,30.5-72.6,47.2-116.3,47.2c-40.1,0-77.9-14-108-39.7l-9.6-9.6
		c-31.4-31.5-48.8-73.4-48.8-117.9c0-43.6,16.7-84.9,47.2-116.3c26.5-27.3,60.8-44.5,98-49.3v156.5v31h186.8
		C539.5,237.1,522.3,271.4,495.1,297.9z"/>
	<path class="st0" d="M604.7-117.9c-23.3,0-42.3,18.9-42.3,42.3s18.9,42.3,42.3,42.3S647-52.3,647-75.6S628-117.9,604.7-117.9z"/>
	<path class="st0" d="M631.1,287.6c-23.3,0-42.3,18.9-42.3,42.3s18.9,42.3,42.3,42.3s42.3-18.9,42.3-42.3
		C673.3,306.6,654.4,287.6,631.1,287.6z"/>
	<path class="st0" d="M258.8-117.7c-20.2,1.8-36.4,18.1-38.2,38.2c-2.3,26.3,19.6,48.3,45.9,45.9c20.2-1.8,36.4-18.1,38.2-38.2
		C307.1-98.1,285.1-120,258.8-117.7z"/>
</g>
</svg>
