<?xml version="1.0" encoding="utf-8"?>
<!-- Generator: Adobe Illustrator 19.0.0, SVG Export Plug-In . SVG Version: 6.00 Build 0)  -->
<svg version="1.1" id="Capa_1" xmlns="http://www.w3.org/2000/svg" xmlns:xlink="http://www.w3.org/1999/xlink" x="0px" y="0px"
	 viewBox="176 -128.9 512 512" style="enable-background:new 176 -128.9 512 512;" xml:space="preserve">
<style type="text/css">
	.st0{fill:#FC552B;}
</style>
<g>
	<path class="st0" d="M432.1,86c-34,0-61.5-10-61.5-22.2v42.1c0,12.3,27.5,22.2,61.5,22.2s61.5-9.9,61.5-22.2V63.7
		C493.5,76,466,86,432.1,86z M487.9,105.9c0,6.6-22.3,16.6-55.8,16.6s-55.8-10-55.8-16.6V80c2.8,1.7,6.2,3.3,10.4,4.8
		c12.2,4.4,28.3,6.9,45.4,6.9c21.5,0,43.1-4,55.8-11.7V105.9z"/>
	<path class="st0" d="M432.1,122.7c-34,0-61.5-10-61.5-22.2v42.2c0,12.3,27.5,22.2,61.5,22.2s61.5-9.9,61.5-22.2v-42.2
		C493.5,112.7,466,122.7,432.1,122.7z M487.9,142.6c0,6.6-22.3,16.6-55.8,16.6s-55.8-10-55.8-16.6v-25.9c2.8,1.7,6.2,3.3,10.4,4.8
		c12.2,4.4,28.3,6.9,45.4,6.9c21.5,0,43.1-4,55.8-11.7V142.6z"/>
	<path class="st0" d="M432.1,159.3c-34,0-61.5-10-61.5-22.2v42.2c0,12.3,27.5,22.2,61.5,22.2s61.5-9.9,61.5-22.2v-42.2
		C493.5,149.4,466,159.3,432.1,159.3z M487.9,179.2c0,6.6-22.3,16.6-55.8,16.6s-55.8-10-55.8-16.6v-25.9c2.8,1.7,6.2,3.3,10.4,4.8
		c12.2,4.4,28.3,6.9,45.4,6.9c21.5,0,43.1-4,55.8-11.7V179.2z"/>
	<path class="st0" d="M432.1,41.5c-34,0-61.5,10-61.5,22.3S398.1,86,432.1,86c33.9,0,61.5-10,61.5-22.2S466,41.5,432.1,41.5z
		 M473.6,74.2c-11,4-25.8,6.2-41.5,6.2c-15.8,0-30.5-2.2-41.5-6.2c-9.9-3.6-14.3-7.8-14.3-10.4c0-2.6,4.4-6.8,14.3-10.4
		c11-4,25.8-6.2,41.5-6.2c15.8,0,30.5,2.2,41.5,6.2c9.9,3.6,14.3,7.8,14.3,10.4C487.9,66.4,483.5,70.6,473.6,74.2z"/>
	<path class="st0" d="M200.9-2.1c-1.1-12.8-0.4-25.8,2.2-38.4v-0.1c3.7-16.9,11.2-31,22.2-41.9c15.2-15.2,36.1-23.6,62-24.7
		c11.7-0.4,23.4,0.4,34.9,2.4l-2.8,15.7c-10.4-1.8-21-2.5-31.5-2.1c-21.8,1-39.1,7.8-51.4,20.1c-8.8,8.8-14.8,20.2-17.9,34
		c-2.3,11.1-2.9,22.4-2,33.7L200.9-2.1z"/>
	<path class="st0" d="M237.8,108.6c-5-9.1-9.6-18.3-13.7-27.3l14.6-6.6c3.9,8.6,8.3,17.5,13.1,26.2L237.8,108.6z M212.8,52.7
		c-2.9-8.3-5.3-16.8-7.3-25.3l15.6-3.6c1.9,8,4.2,16,6.9,23.8L212.8,52.7z"/>
	<path class="st0" d="M320.6,219.4c-2-2-3.9-4.1-5.8-6.1c-4.4-4.7-8.6-9.3-12.6-13.8c-0.7-0.8-1.4-1.6-2.1-2.4l12.1-10.5
		c0.7,0.8,1.4,1.6,2.1,2.4c3.9,4.4,8,8.9,12.2,13.5c1.9,2,3.7,4,5.6,6L320.6,219.4z M280.8,173.5c-1.2-1.5-2.4-3.1-3.6-4.6
		c-5-6.6-9.9-13.3-14.4-19.9l13.2-9.1c4.4,6.4,9.1,12.9,14,19.3c1.1,1.5,2.3,3,3.5,4.5L280.8,173.5z"/>
	<path class="st0" d="M570.4,355.9c-4.9,0-10-0.2-15.2-0.7c-3.7-0.4-7.5-0.8-11.3-1.4l2.5-15.8c3.5,0.6,7,1,10.3,1.3
		c13.7,1.3,26.2,0.7,37.2-1.8c13.6-3.1,25-9.1,33.7-17.8c17.6-17.6,23.9-45.8,18.2-81.5c-3.1-19-9.4-39.6-18.9-61.3l14.6-6.4
		c10,22.9,16.8,44.8,20,65.2c6.6,41-1.3,74-22.6,95.3c-10.9,10.9-24.8,18.3-41.5,22.1C588.5,355,579.5,356,570.4,355.9z"/>
	<path class="st0" d="M619.7,161.6c-3.3-6.6-6.9-13.4-10.8-20.2l13.9-7.9c4,7,7.8,14.1,11.2,21L619.7,161.6z"/>
	<path class="st0" d="M590.3,111.6c-5.5-8.1-11.3-16.2-17.3-23.9l12.7-9.7c6.1,8,12.1,16.3,17.8,24.6L590.3,111.6z M554.4,64.7
		c-6.4-7.4-13-14.8-19.8-21.9l11.6-11c7,7.3,13.8,14.9,20.4,22.5L554.4,64.7z"/>
	<path class="st0" d="M291.2,358.8c-9,0-18-0.9-26.8-2.8c-16.9-3.7-31-11.2-42-22.2c-15.2-15.2-23.5-36.1-24.7-62
		c-0.4-11.7,0.4-23.4,2.4-34.9l15.7,2.8c-1.8,10.4-2.5,21-2.1,31.5c1,21.8,7.8,39.1,20.1,51.4c8.8,8.8,20.3,14.8,34.1,17.8
		c11.1,2.3,22.4,2.9,33.7,2l1.4,15.9C299,358.7,295.1,358.8,291.2,358.8z"/>
	<path class="st0" d="M332.3,353.7l-3.6-15.6c8-1.9,16-4.2,23.8-6.9l5.2,15.1C349.3,349.2,340.9,351.7,332.3,353.7z M386.2,335.1
		l-6.6-14.6c8.6-3.9,17.5-8.3,26.2-13.1l7.7,14C404.4,326.4,395.2,331,386.2,335.1z"/>
	<path class="st0" d="M453.9,296.4l-9.1-13.2c6.5-4.5,13-9.2,19.3-14c1.5-1.1,3-2.3,4.5-3.5l9.8,12.6c-1.5,1.2-3.1,2.4-4.6,3.6
		C467.3,286.9,460.6,291.8,453.9,296.4z M501.9,259.1L491.4,247c0.8-0.7,1.6-1.4,2.4-2.1c4.3-3.8,8.9-7.9,13.5-12.2
		c2-1.9,4-3.7,5.9-5.6l11.1,11.5c-2,2-4.1,3.9-6.1,5.8c-4.7,4.4-9.4,8.6-13.8,12.5C503.6,257.7,502.7,258.4,501.9,259.1z"/>
	<path class="st0" d="M658.7,15.3l-15.8-2.5c0.6-3.5,1-7,1.3-10.3c1.3-13.7,0.7-26.2-1.8-37.2c-3.1-13.6-9.1-25-17.8-33.7
		C607-86,578.8-92.3,543.1-86.6c-19,3-39.6,9.4-61.3,18.9l-6.4-14.6c22.9-10,44.8-16.8,65.2-20c41-6.6,74,1.3,95.3,22.6
		c10.9,10.9,18.3,24.8,22.1,41.5c2.8,12.7,3.5,26.9,2.1,42.2C659.8,7.7,659.3,11.5,658.7,15.3z"/>
	<path class="st0" d="M445.7-49.3l-7.9-13.9c7.3-4.2,14.6-8.1,21.8-11.6l7.1,14.3C459.7-57.1,452.7-53.3,445.7-49.3z"/>
	<path class="st0" d="M347.8,24.6l-11-11.6c7.3-7,14.9-13.8,22.5-20.4l10.4,12.1C362.2,11.1,354.9,17.8,347.8,24.6z M392.6-13.8
		l-9.7-12.7c8-6.1,16.3-12.1,24.6-17.8l9,13.2C408.5-25.6,400.4-19.7,392.6-13.8z"/>
	<path class="st0" d="M524.8,302.8l-15.4,4.4l6.8,23.6c-19.1-6-37.6-13.8-55.2-23.3c-24.4-13.1-47.7-28.2-69.5-45.4
		c-16.2-12.6-31.6-26.2-46.3-40.5L334,233c15.1,14.7,31,28.6,47.6,41.6c22.5,17.7,46.6,33.4,71.8,46.9c14.8,7.9,30.1,14.7,45.8,20.4
		l-14.6,4.2l4.4,15.4l40.6-11.6l0.2-0.1c2-0.6,3.8-1.9,4.8-3.8c1-1.9,1.3-4.1,0.7-6.1L524.8,302.8z"/>
	<path class="st0" d="M340.1-89l8.1,37.8l15.6-3.3l-5.2-24.1c14.7,5.2,28.9,11.5,42.7,18.7c24.1,12.7,47.1,27.6,68.6,44.3
		c10.2,7.8,20.4,16.3,30.4,25.3c5.5,4.9,11,10.1,16.6,15.5c2.3,2.2,4.7,4.6,7.2,7.1L535.4,21c-2.5-2.5-5-5-7.4-7.3
		c-5.7-5.5-11.5-10.9-17.1-15.9c-10.3-9.2-20.8-17.9-31.2-26c-22.3-17.3-46-32.6-70.9-45.8c-10.3-5.5-20.9-10.4-31.8-14.7l14.1-3
		l-3.3-15.6l-41.6,8.9c-4.1,0.9-6.8,4.8-6.2,9C340-89.4,340.1-89.2,340.1-89z"/>
	<path class="st0" d="M325.8,23.7c-2.8,2.8-5.1,5.1-7.3,7.4c-5.4,5.6-10.7,11.3-15.9,17.1c-9.2,10.3-17.9,20.8-26,31.3
		c-17.3,22.3-32.6,46-45.8,70.9c-5.5,10.3-10.4,20.9-14.7,31.7l-3-14.1l-15.6,3.3l8.9,41.6c0.9,4.1,4.8,6.8,9,6.2
		c0.2,0,0.4-0.1,0.6-0.1l37.8-8.1l-3.3-15.6l-24.1,5.2c5.2-14.7,11.5-28.9,18.7-42.7c12.7-24.1,27.6-47.1,44.3-68.6
		c7.8-10.2,16.3-20.4,25.3-30.4c5-5.6,10.2-11.2,15.5-16.6c2.1-2.2,4.4-4.5,7.1-7.2L325.8,23.7z"/>
	<path class="st0" d="M666.5,70l-11.6-40.6l-0.1-0.2c-0.6-2-1.9-3.8-3.8-4.8s-4-1.3-6.1-0.7l-37.2,10.6l4.4,15.4l23.6-6.8
		c-6,19.1-13.8,37.5-23.3,55.2c-13.1,24.4-28.2,47.7-45.4,69.5c-12.7,16.2-26.2,31.6-40.5,46.3l11.4,11.2
		c14.7-15.1,28.6-31,41.6-47.6c17.7-22.5,33.4-46.6,46.9-71.8c7.9-14.8,14.7-30.1,20.4-45.8l4.2,14.6L666.5,70z"/>
</g>
</svg>
