<?xml version="1.0" encoding="utf-8"?>
<!-- Generator: Adobe Illustrator 19.0.0, SVG Export Plug-In . SVG Version: 6.00 Build 0)  -->
<svg version="1.1" id="Capa_1" xmlns="http://www.w3.org/2000/svg" xmlns:xlink="http://www.w3.org/1999/xlink" x="0px" y="0px"
	 viewBox="176 -128.9 512 512" style="enable-background:new 176 -128.9 512 512;" xml:space="preserve">
<style type="text/css">
	.st0{fill:#FC552B;}
</style>
<g>
	<g>
		<path class="st0" d="M614.4,23.7c-7.2-37.1-39.7-64.4-78.2-64.4c-4.1,0-8.2,0.3-12.4,1C499.2-80,455.3-104.8,408-104.8
			c-66.6,0-122.8,48-133.8,112.9c-3.5-0.4-7-0.6-10.5-0.6c-48.3,0-87.7,39.3-87.7,87.7c0,48.3,39.3,87.7,87.7,87.7h64.1
			c4.1,0,7.5-3.4,7.5-7.5s-3.4-7.5-7.5-7.5h-64.1c-40.1,0-72.7-32.6-72.7-72.7c0-40.1,32.6-72.7,72.7-72.7c5.1,0,10.2,0.6,15.3,1.6
			c2.1,0.4,4.2,0,6-1.3c1.7-1.2,2.8-3.2,3.1-5.3c6.8-61.2,58.3-107.4,120-107.4c43.8,0,84.2,23.8,105.5,62.2c1.6,2.9,5,4.4,8.2,3.7
			c4.9-1.1,9.8-1.7,14.5-1.7c33,0,60.6,24.7,64.2,57.5c0.4,3.8,3.6,6.7,7.5,6.7c0,0,0,0,0,0c0.2,0,0.4,0,0.6,0
			c35.6,0.1,64.5,29.1,64.5,64.6c0,35.6-29,64.6-64.6,64.6H479.6v-34.3c9.3-3.1,16-11.9,16-22.3V14.9c0-13-10.6-23.5-23.5-23.5
			h-96.2c-13,0-23.5,10.6-23.5,23.5v96.2c0,10.4,6.7,19.2,16,22.3v34.3h-8.5c-4.1,0-7.5,3.4-7.5,7.5s3.4,7.5,7.5,7.5h8.5v33.1H318
			c-3.1-9.3-11.9-16-22.3-16c-13,0-23.5,10.6-23.5,23.5s10.6,23.5,23.5,23.5c10.4,0,19.2-6.7,22.3-16h50.4v34.3
			c-9.3,3.1-16,11.9-16,22.3c0,13,10.6,23.5,23.5,23.5s23.5-10.6,23.5-23.5c0-10.4-6.7-19.2-16-22.3v-82.4h33.1v130.5
			c-9.3,3.1-16,11.9-16,22.3c0,13,10.6,23.5,23.5,23.5c13,0,23.5-10.6,23.5-23.5c0-10.4-6.7-19.2-16-22.3V182.7h33.1v82.4
			c-9.3,3.1-16,11.9-16,22.3c0,13,10.6,23.5,23.5,23.5s23.5-10.6,23.5-23.5c0-10.4-6.7-19.2-16-22.3v-34.3h50.4
			c3.1,9.3,11.9,16,22.3,16c13,0,23.5-10.6,23.5-23.5s-10.6-23.5-23.5-23.5c-10.4,0-19.2,6.7-22.3,16h-50.4v-33.1h128.8
			c43.9,0,79.6-35.7,79.6-79.6C688,61.2,655.5,26.7,614.4,23.7z M295.7,231.8c-4.7,0-8.5-3.8-8.5-8.5s3.8-8.5,8.5-8.5
			c4.7,0,8.5,3.8,8.5,8.5S300.4,231.8,295.7,231.8z M384.4,287.4c0,4.7-3.8,8.5-8.5,8.5c-4.7,0-8.5-3.8-8.5-8.5
			c0-4.7,3.8-8.5,8.5-8.5C380.6,278.9,384.4,282.7,384.4,287.4z M416.5,167.7h-33.1v-33.1h33.1V167.7z M432.5,335.5
			c0,4.7-3.8,8.5-8.5,8.5c-4.7,0-8.5-3.8-8.5-8.5s3.8-8.5,8.5-8.5C428.7,327,432.5,330.8,432.5,335.5z M464.6,167.7h-33.1v-33.1
			h33.1V167.7z M431.5,119.6v-17.1H456c4.1,0,7.5-3.4,7.5-7.5V63c0-4.1-3.4-7.5-7.5-7.5s-7.5,3.4-7.5,7.5v24.6h-49.1V38.4H456
			c4.1,0,7.5-3.4,7.5-7.5s-3.4-7.5-7.5-7.5h-64.1c-4.1,0-7.5,3.4-7.5,7.5v64.1c0,4.1,3.4,7.5,7.5,7.5h24.6v17.1h-40.6
			c-4.7,0-8.5-3.8-8.5-8.5V14.9h0c0-4.7,3.8-8.5,8.5-8.5h96.2c4.7,0,8.5,3.8,8.5,8.5v96.2c0,4.7-3.8,8.5-8.5,8.5H431.5z
			 M480.6,287.4c0,4.7-3.8,8.5-8.5,8.5c-4.7,0-8.5-3.8-8.5-8.5c0-4.7,3.8-8.5,8.5-8.5S480.6,282.7,480.6,287.4z M552.2,214.8
			c4.7,0,8.5,3.8,8.5,8.5s-3.8,8.5-8.5,8.5s-8.5-3.8-8.5-8.5S547.5,214.8,552.2,214.8z"/>
	</g>
</g>
</svg>
