<?xml version="1.0" encoding="utf-8"?>
<!-- Generator: Adobe Illustrator 19.0.0, SVG Export Plug-In . SVG Version: 6.00 Build 0)  -->
<svg version="1.1" id="Capa_1" xmlns="http://www.w3.org/2000/svg" xmlns:xlink="http://www.w3.org/1999/xlink" x="0px" y="0px"
	 viewBox="176 -128.9 512 512" style="enable-background:new 176 -128.9 512 512;" xml:space="preserve">
<style type="text/css">
	.st0{fill:#FC552B;}
</style>
<g>
	<path class="st0" d="M629.9,121.6V64.4c7.9-2.8,13.7-10.3,13.7-19.2c0-11.3-9.2-20.5-20.5-20.5c-2.4,0-4.6,0.5-6.7,1.2l-30.6-38.2
		c2-3.2,3.2-6.8,3.2-10.8c0-11.3-9.2-20.5-20.5-20.5c-5.7,0-10.9,2.4-14.7,6.2L500-62.2c0.1-0.6,0.2-1.2,0.2-1.9
		c0-11.3-9.2-20.5-20.5-20.5c-8.9,0-16.4,5.7-19.2,13.7h-77.7c-2.8-7.9-10.3-13.7-19.2-13.7c-11.3,0-20.5,9.2-20.5,20.5
		c0,0.9,0.2,1.6,0.3,2.5l-33.9,16.9c-3.7-3.6-8.7-5.7-14.2-5.7c-11.3,0-20.5,9.2-20.5,20.5c0,3.9,1.2,7.6,3.2,10.8l-30.6,38.2
		c-2.1-0.8-4.4-1.2-6.7-1.2c-11.3,0-20.5,9.2-20.5,20.5c0,8.9,5.7,16.4,13.7,19.2v43.5c-7.9,2.8-13.7,10.3-13.7,19.2
		c0,11.3,9.2,20.5,20.5,20.5c7.6,0,14.2-4.2,17.7-10.3l37.3,6.7c1.5,9.7,10,17.2,20.1,17.2c0.3,0,0.5-0.1,0.8-0.1l13.1,32.6
		c-4.3,3.8-7,9.2-7,15.3c0,11.3,9.2,20.5,20.5,20.5c6.8,0,12.9-3.4,16.6-8.6l58.6,16.7c0.5,8.3,6,15.3,13.5,17.9v50.4
		c-7.9,2.8-13.7,10.3-13.7,19.2c0,11.3,9.2,20.5,20.5,20.5c11.3,0,20.5-9.2,20.5-20.5c0-8.9-5.7-16.4-13.7-19.2v-50.4
		c7.9-2.8,13.7-10.3,13.7-19.2c0-6.6-3.2-12.3-7.9-16l8.2-24.5l61.3,20.4c0.2,8.7,5.8,16,13.7,18.9v70.8
		c-7.9,2.8-13.7,10.3-13.7,19.2c0,11.3,9.2,20.5,20.5,20.5s20.5-9.2,20.5-20.5c0-8.9-5.7-16.4-13.7-19.2v-70.8
		c7.9-2.8,13.7-10.3,13.7-19.2c0-2.5-0.5-4.9-1.4-7.1l52.4-43.7c3.1,1.8,6.6,2.9,10.4,2.9c11.3,0,20.5-9.2,20.5-20.5
		C643.5,131.9,637.8,124.4,629.9,121.6z M336.3,133.6c0-0.9-0.2-1.6-0.3-2.4l56-29l17.3,55.8L336.3,133.6z M321,114.2l-9.5-72.5
		l46.8-2.3c3,7.2,9.9,12.3,18.1,12.6l11.4,37l-58.1,30.1C327.3,116.8,324.3,115.1,321,114.2z M259.6,30.6c-0.4-1-1-2-1.5-3
		l30.6-38.2c0.8,0.3,1.5,0.6,2.4,0.8l5,38.7L259.6,30.6z M304.5-11.7c6.7-3.4,11.3-10.2,11.3-18.2c0-0.9-0.2-1.6-0.3-2.5l33.9-16.9
		c3.7,3.6,8.7,5.7,14.2,5.7c4.2,0,8.1-1.3,11.4-3.4l42.4,31.8l-30.7,28.7c-2.8-1.5-6-2.4-9.4-2.4c-9.2,0-17,6.2-19.5,14.6l-48,2.4
		L304.5-11.7z M460.9-55.9l-33.5,31.2l-43.4-32.6h76.4C460.6-56.8,460.7-56.3,460.9-55.9z M479.9,41.2L425,69.7l-29.4-29.4
		c1.3-2.6,2-5.6,2-8.8c0-2.9-0.6-5.6-1.7-8.2L428.5-7l52.2,39.2c-0.6,2-1,3.9-1,6.1C479.7,39.3,479.8,40.2,479.9,41.2z M384.1,31.5
		c0,3.8-3.1,6.8-6.8,6.8s-6.8-3.1-6.8-6.8s3.1-6.8,6.8-6.8S384.1,27.8,384.1,31.5z M412.3,76.3l-12.1,6.2l-8.3-26.6L412.3,76.3z
		 M404.3,95.7l18.1-9.4l32,32c-1.3,2.6-2,5.6-2,8.8c0,6.6,3.2,12.3,7.9,16l-9.6,28.6l-25.5-8.5L404.3,95.7z M472.8,133.9
		c-3.8,0-6.8-3.1-6.8-6.8s3.1-6.8,6.8-6.8s6.8,3.1,6.8,6.8S476.6,133.9,472.8,133.9z M472.8,106.6c-3.2,0-6.1,0.8-8.8,2l-28.9-28.9
		l51-26.5c3.7,3.4,8.5,5.5,13.9,5.5c3.8,0,7.3-1.1,10.4-2.9l31.1,25.9L486.3,112C482.8,108.7,478,106.6,472.8,106.6z M558.7-5.2
		c2.9,1.6,6.1,2.6,9.7,2.6c2.4,0,4.6-0.5,6.7-1.2l30.6,38.2c-2,3.2-3.2,6.8-3.2,10.8c0,1.1,0.2,2.1,0.3,3.2l-48.3,26.4l-35.2-29.4
		c0.9-2.2,1.4-4.6,1.4-7.1c0-2.8-0.6-5.5-1.5-7.9L558.7-5.2z M612.6,123.2l-46.9-39l43.6-23.8c2,1.8,4.3,3.2,6.7,4v57.2
		C614.9,122,613.8,122.6,612.6,123.2z M507,38.4c0,3.8-3.1,6.8-6.8,6.8s-6.8-3.1-6.8-6.8s3.1-6.8,6.8-6.8S507,34.6,507,38.4z
		 M552.9,91.2l48.9,40.8l-106-9.6L552.9,91.2z M629.9,45.2c0,3.8-3.1,6.8-6.8,6.8c-3.8,0-6.8-3.1-6.8-6.8s3.1-6.8,6.8-6.8
		C626.8,38.4,629.9,41.4,629.9,45.2z M568.4-29.9c3.8,0,6.8,3.1,6.8,6.8s-3.1,6.8-6.8,6.8c-3.8,0-6.8-3.1-6.8-6.8
		S564.7-29.9,568.4-29.9z M548.1-25c-0.1,0.6-0.2,1.2-0.2,1.9c0,2.8,0.6,5.5,1.5,7.9l-39.7,35.7c-2.9-1.6-6.1-2.6-9.7-2.6
		c-4.2,0-8.1,1.3-11.4,3.4l-50.3-37.7l31.7-29.6c2.8,1.5,6,2.4,9.4,2.4c5.7,0,10.9-2.4,14.7-6.2L548.1-25z M479.7-70.9
		c3.8,0,6.8,3.1,6.8,6.8c0,3.8-3.1,6.8-6.8,6.8s-6.8-3.1-6.8-6.8C472.8-67.8,475.9-70.9,479.7-70.9z M363.6-70.9
		c3.8,0,6.8,3.1,6.8,6.8c0,3.8-3.1,6.8-6.8,6.8c-3.8,0-6.8-3.1-6.8-6.8C356.8-67.8,359.8-70.9,363.6-70.9z M295.3-36.8
		c3.8,0,6.8,3.1,6.8,6.8s-3.1,6.8-6.8,6.8s-6.8-3.1-6.8-6.8S291.6-36.8,295.3-36.8z M240.7,31.5c3.8,0,6.8,3.1,6.8,6.8
		s-3.1,6.8-6.8,6.8c-3.8,0-6.8-3.1-6.8-6.8S236.9,31.5,240.7,31.5z M240.7,127.1c-3.8,0-6.8-3.1-6.8-6.8c0-3.8,3.1-6.8,6.8-6.8
		c3.8,0,6.8,3.1,6.8,6.8C247.5,124,244.4,127.1,240.7,127.1z M247.5,101.1V57.6c6.1-2.2,10.8-7.2,12.7-13.4l37.6-1.8l9.6,73
		c-3.9,1.8-7.1,4.8-9.2,8.4l-37.3-6.7C259.6,109.6,254.4,103.6,247.5,101.1z M309,133.9c0-3.8,3.1-6.8,6.8-6.8s6.8,3.1,6.8,6.8
		s-3.1,6.8-6.8,6.8S309,137.7,309,133.9z M329.3,149.2c0.9-0.9,1.8-1.8,2.6-2.7l82.4,27.5l12.2,39.2c-1.7,1.3-3.2,2.7-4.4,4.5
		l-58.6-16.7c-0.7-10.7-9.5-19.2-20.3-19.2c-0.3,0-0.5,0.1-0.8,0.1L329.3,149.2z M343.1,209.1c-3.8,0-6.8-3.1-6.8-6.8
		s3.1-6.8,6.8-6.8s6.8,3.1,6.8,6.8S346.9,209.1,343.1,209.1z M438.7,325.1c-3.8,0-6.8-3.1-6.8-6.8s3.1-6.8,6.8-6.8s6.8,3.1,6.8,6.8
		S442.5,325.1,438.7,325.1z M438.7,236.4c-3.8,0-6.8-3.1-6.8-6.8c0-3.8,3.1-6.8,6.8-6.8s6.8,3.1,6.8,6.8
		C445.5,233.3,442.5,236.4,438.7,236.4z M439,207.3l-8.7-28l16.2,5.4L439,207.3z M473.3,147.6c8.1-0.2,15-5,18.2-11.9l111.9,10.2
		c0.2,0.7,0.3,1.4,0.6,2l-52.4,43.7c-3.1-1.8-6.6-2.9-10.4-2.9c-6.6,0-12.3,3.2-16,7.9l-61.4-20.5L473.3,147.6z M541.1,325.1
		c-3.8,0-6.8-3.1-6.8-6.8s3.1-6.8,6.8-6.8c3.8,0,6.8,3.1,6.8,6.8S544.9,325.1,541.1,325.1z M541.1,215.9c-3.8,0-6.8-3.1-6.8-6.8
		s3.1-6.8,6.8-6.8c3.8,0,6.8,3.1,6.8,6.8S544.9,215.9,541.1,215.9z M623.1,147.6c-3.8,0-6.8-3.1-6.8-6.8c0-3.8,3.1-6.8,6.8-6.8
		c3.8,0,6.8,3.1,6.8,6.8C629.9,144.5,626.8,147.6,623.1,147.6z"/>
</g>
</svg>
