<?xml version="1.0" encoding="utf-8"?>
<!-- Generator: Adobe Illustrator 19.0.0, SVG Export Plug-In . SVG Version: 6.00 Build 0)  -->
<svg version="1.1" id="Capa_1" xmlns="http://www.w3.org/2000/svg" xmlns:xlink="http://www.w3.org/1999/xlink" x="0px" y="0px"
	 viewBox="176 -128.9 512 512" style="enable-background:new 176 -128.9 512 512;" xml:space="preserve">
<style type="text/css">
	.st0{fill:#FC552B;}
</style>
<g id="surface1_2_">
	<path class="st0" d="M624.8-15.3h-86.9c-3.4,0-6.2,2.8-6.2,6.2s2.8,6.2,6.2,6.2h86.9c3.7,0,6.6,3,6.6,6.6V243c0,3.7-3,6.6-6.6,6.6
		H239.1c-3.7,0-6.6-3-6.6-6.6V3.9c0-3.7,3-6.6,6.6-6.6h136.5V9.7H251.1c-3.4,0-6.2,2.8-6.2,6.2v164.1c0,3.4,2.8,6.2,6.2,6.2
		c3.4,0,6.2-2.8,6.2-6.2V22h118.3v33.4L349,68.1c-2.1,1-3.5,3.3-3.5,5.7v101.3c0,2.4,1.4,4.5,3.5,5.7l80.3,38.4
		c1.7,0.8,3.7,0.7,5.4,0l45.2-21.6c3.1-1.4,4.4-5.2,3-8.3c-1.4-3.1-5.2-4.4-8.3-3l-36.3,17.4v-87.5l67.8-32.5v87.5l-9.2,4.4
		c-3.1,1.4-4.4,5.2-3,8.3c1.4,3.1,5.2,4.4,8.3,3l12.7-6.1c2.1-1,3.5-3.3,3.5-5.7V73.8c0-2.4-1.4-4.5-3.5-5.7l-26.6-12.7V22h118.3
		v203H257.2v-18.5c0-3.4-2.8-6.2-6.2-6.2s-6.2,2.8-6.2,6.2v24.7c0,3.4,2.8,6.2,6.2,6.2h362c3.4,0,6.2-2.8,6.2-6.2V15.8
		c0-3.4-2.8-6.2-6.2-6.2H488.4V-2.8h23c3.4,0,6.2-2.8,6.2-6.2s-2.8-6.2-6.2-6.2h-23v-12.4h55.7c3.4,0,6.2-2.8,6.2-6.2v-14.7
		c7.2-2.5,12.4-9.5,12.4-17.5c0-10.3-8.3-18.7-18.7-18.7s-18.7,8.3-18.7,18.7c0,8.1,5.2,15,12.4,17.5v8.5h-55.7
		c-3.4,0-6.2,2.8-6.2,6.2v18.7h-37.7v-33.4c7.2-2.5,12.4-9.5,12.4-17.5c0-10.3-8.3-18.7-18.7-18.7s-18.7,8.3-18.7,18.7
		c0,8.1,5.2,15,12.4,17.5v33.4H388v-18.7c0-3.4-2.8-6.2-6.2-6.2h-55.7v-8.5c7.2-2.5,12.4-9.5,12.4-17.5c0-10.3-8.3-18.7-18.7-18.7
		s-18.7,8.3-18.7,18.7c0,8.1,5.2,15,12.4,17.5v14.7c0,3.4,2.8,6.2,6.2,6.2h55.7v12.4H239.1c-10.6,0-19.1,8.6-19.1,19.1V243
		c0,10.6,8.6,19.1,19.1,19.1h134.7c-2.4,22.8-17.5,36-22.2,39.7h-26.4c-10.3,0-18.7,8.3-18.7,18.7s8.3,18.7,18.7,18.7h213.7
		c10.3,0,18.7-8.3,18.7-18.7s-8.3-18.7-18.7-18.7h-26.4c-4.7-3.7-19.8-17.1-22.2-39.7h134.7c10.6,0,19.1-8.6,19.1-19.1V3.9
		C643.9-6.7,635.4-15.3,624.8-15.3z M544.1-72.4c3.4,0,6.2,2.8,6.2,6.2c0,3.4-2.8,6.2-6.2,6.2c-3.4,0-6.2-2.8-6.2-6.2
		C537.9-69.6,540.6-72.4,544.1-72.4z M431.9-72.4c3.4,0,6.2,2.8,6.2,6.2c0,3.4-2.8,6.2-6.2,6.2s-6.2-2.8-6.2-6.2
		C425.6-69.6,428.5-72.4,431.9-72.4z M319.8-72.4c3.4,0,6.2,2.8,6.2,6.2c0,3.4-2.8,6.2-6.2,6.2s-6.2-2.8-6.2-6.2
		C313.6-69.6,316.4-72.4,319.8-72.4z M387.9,22h37.7v9.3l-37.7,18.1V22z M497.9,73.6L432,105.1l-65.9-31.5L432,42.1L497.9,73.6z
		 M357.8,83.5l67.8,32.5v87.5L357.8,171V83.5z M476,49.4l-37.7-18.1V22H476V49.4z M476-2.8V9.6h-37.7V-2.8H476z M425.6-2.8V9.6
		h-37.7V-2.8H425.6z M544.9,320.6c0,3.4-2.8,6.2-6.2,6.2H325c-3.4,0-6.2-2.8-6.2-6.2s2.8-6.2,6.2-6.2h213.7
		C542.1,314.3,544.9,317.2,544.9,320.6z M494.6,301.9H369.4c7.3-8.5,15.4-21.8,17-39.7h91.5C479.2,280.3,487.3,293.4,494.6,301.9z"
		/>
</g>
</svg>
