<?xml version="1.0" encoding="utf-8"?>
<!-- Generator: Adobe Illustrator 19.0.0, SVG Export Plug-In . SVG Version: 6.00 Build 0)  -->
<svg version="1.1" id="Capa_1" xmlns="http://www.w3.org/2000/svg" xmlns:xlink="http://www.w3.org/1999/xlink" x="0px" y="0px"
	 viewBox="176 -128.9 512 512" style="enable-background:new 176 -128.9 512 512;" xml:space="preserve">
<style type="text/css">
	.st0{fill:#FC552B;}
</style>
<g transform="translate(-1 -1)">
	<g>
		<g>
			<path class="st0" d="M622.9,120.6C634.7,56.2,615.4-32,545-74.2c-44.5-24.9-96.9-31.5-146.2-18.3
				c-68.3,18.2-118.4,67.2-134.1,131c-3.6,12.9-5.1,26.3-4.4,39.7c0.8,8.3,2.3,16.6,4.5,24.5c3.1,10.3,4.7,20.8,4.5,31.5
				c-0.3,12.7-9,25.9-16.8,37.5c-8.5,12.7-15.7,23.7-11.5,33.7c4,6.8,11.1,11.4,18.9,12.2c0.4,0.1,1,0.1,1.4,0.1
				c2.1-0.3,4.2,0.4,5.7,1.9c1.5,1.5,2.3,3.6,2.2,5.6c0,15.7,0.4,23.8,6.8,27.6c-0.5,1.2-1,2.5-1.2,3.7c-0.7,4.4,1,8.9,4.2,11.9
				c3.3,3.1,7.5,5.3,12,6.2c0.3,0.1,0.7,0.1,1,0.1c0.1,1.1,0.3,2.3,0.3,3.4c0,2.9-0.3,5.6-0.5,8.5c-1.2,12.2-3,28.7,21.2,36.7
				c4.9,1.4,9.9,1.9,14.9,1.8c23-1,45.6-5.3,67.3-12.9c6.3,10.9,10,23.1,11.1,35.7c0,2.1,0.8,4,2.2,5.3s3.3,2.2,5.3,2.2h189.4
				c3.3,0,6-2.2,7.1-5.2c1-3.1-0.1-6.6-2.7-8.5c-7.8-5.9-33.8-68.7-34.6-91.1c2.3-5.2,5.3-11.1,9-17.8
				C602,197.9,615.8,160,622.9,120.6z M558,249.6c0.1,18.1,16.6,66,30.5,90.6H421.1c-1.9-11.6-5.6-22.9-11.1-33.3
				c21.9-8.6,41.3-19.7,50.5-31.7c2.5-3.3,1.9-8.1-1.4-10.5c-3.3-2.6-8.1-1.9-10.7,1.4c-21.5,28.1-110.6,49.4-130.6,42.8
				c-12.6-4.1-12-9-10.9-20.7c0.4-3.3,0.7-6.7,0.7-10c0-12.7-5.2-16.6-12.9-18.3c-1.5-0.3-2.9-0.7-4.1-1.6c1.5-1.4,3.1-2.6,5.1-3.6
				c3.1-1.5,4.8-5.1,4.1-8.5c-0.8-3.4-3.8-5.9-7.4-5.9c-2.7,0-5.7,0-7.4-0.1c-0.5-4.9-0.7-10-0.5-14.9c0.1-6-2.2-11.8-6.3-16
				s-9.9-6.7-15.9-6.7c-5.5-1.1-7.1-2.6-7.3-3c-1.1-2.6,6.2-13.5,10.1-19.6c8.3-12.7,18.9-28.5,19.3-45.4c0.3-9.4-0.8-18.9-3.1-28.1
				c8.2-7.3,18.1-12.6,28.6-15.7c3.7-0.7,7.7-0.4,11.2,0.8c4,1.1,8.2-1.2,9.3-5.3c1.1-4-1.2-8.2-5.3-9.3c-6-1.8-12.3-2.2-18.5-1
				c-10.7,2.7-20.7,7.7-29.3,14.5c-1.1-4.4-1.8-8.9-2.1-13.4c-0.5-11.8,0.8-23.7,4-35c14.6-59.3,59.5-102.9,123.3-120
				c45.3-12.2,93.5-6.2,134.4,16.7c64.2,38.5,81.7,119.7,70.7,179c-6.8,37.9-20,74.3-39.1,107.7c-4.1,7.8-7.8,14.5-10.4,20.7
				C558.2,247.3,558,248.5,558,249.6z"/>
			<path class="st0" d="M573.1,137.8c1.1-11.6-7-22.3-18.5-24.4l-14.5-20.1c0.8-1.6,1.5-3.4,2.1-5.2l14.1-5.6c6.4,7.4,17,9.7,26,5.9
				c9-3.8,14.5-13.1,13.5-23c-1-9.9-8.1-17.8-17.7-20l-11.4-22.7c7.9-8.1,8.6-20.9,1.6-29.8c-7.1-8.9-19.7-11.2-29.4-5.3L526.3-23
				c1-2.5,1.5-5.2,1.5-7.8c0-9.3-5.6-17.7-14.2-21.1c-8.6-3.4-18.5-1.4-24.9,5.3l-22.4-5.6c-2.7-9.7-11.5-16.6-21.6-16.6
				s-19,6.6-21.8,16.3l-30,6c-7.8-8.5-20.8-9.7-30-2.9c-9.3,6.8-11.9,19.6-6.2,29.6L342.1-0.1c-10.5,1.9-18.3,10.9-18.6,21.6
				s6.8,20.1,17.4,22.7l12.2,30c-6.7,6.6-8.6,16.6-4.9,25.2c3.7,8.6,12.3,14.1,21.6,13.7c9.3-0.3,17.5-6.3,20.7-15.2h40.6
				c3.4,10.4,14,16.8,24.8,14.8l25.2,38.2c-6.4,7.1-7.7,17.7-3,26c4.7,8.5,14.1,13,23.5,11.5c9.4-1.5,17-9,18.6-18.5l18.7-15.1
				c3.6,2.2,7.7,3.4,11.9,3.4C562.3,158.5,572,149.6,573.1,137.8z M573.2,59.9c3.8,0,7,2.7,7.5,6.6c0.5,3.7-1.8,7.3-5.5,8.3
				c-3.7,1-7.5-0.8-9-4.2c0-0.1,0-0.1,0-0.3v-0.1c-0.4-0.8-0.5-1.8-0.5-2.7C565.7,63.3,569,59.9,573.2,59.9z M543.1,5.5
				c0.7-3.6,3.8-6,7.4-6c4.2,0,7.5,3.4,7.5,7.5s-3.4,7.5-7.5,7.5c-1,0-1.9-0.1-2.7-0.5l0,0h-0.1C544.2,12.4,542.3,8.9,543.1,5.5z
				 M535.6,23.9L535.6,23.9l-14,35l-24.5-19.6c3.3-2.9,5.7-6.6,7-10.8l30-6C534.5,23,535.1,23.5,535.6,23.9z M527.5,84.7
				c-1,3.7-4.5,6-8.3,5.5c-3.7-0.5-6.6-3.7-6.6-7.5c0-4.2,3.4-7.5,7.5-7.5c1,0,1.9,0.1,2.7,0.5l0,0c0,0,0.1,0,0.3,0
				C526.7,77.3,528.5,81.1,527.5,84.7z M505.1-38.5c4.2,0,7.5,3.4,7.5,7.5c0,4.2-3.4,7.5-7.5,7.5c-4.2,0-7.5-3.4-7.5-7.5
				S500.8-38.5,505.1-38.5z M465.3-36.8l17.2,4.4c0,0.5-0.1,1.1-0.1,1.6c0,12.6,10.1,22.7,22.7,22.7c4.1,0,8.1-1.1,11.5-3.3
				l12.7,10.5c-1,2.5-1.5,5.2-1.5,7.8c0,0.4,0.1,0.8,0.1,1.4l-24.6,4.9c-3.1-7.3-9.7-12.3-17.4-13.5l-27.8-27.8
				C461.2-30.3,463.6-33.4,465.3-36.8z M489.9,22.2c0,4.2-3.4,7.5-7.5,7.5c-4.2,0-7.5-3.4-7.5-7.5c0-4.2,3.4-7.5,7.5-7.5
				C486.5,14.5,489.9,17.9,489.9,22.2z M444.5-53.7c4.2,0,7.5,3.4,7.5,7.5c0,4.2-3.4,7.5-7.5,7.5s-7.5-3.4-7.5-7.5
				S440.4-53.7,444.5-53.7z M446-18.8L468.7,4c-3.6,2.7-6.2,6.3-7.7,10.5h-17.9c-1.8-5.1-5.3-9.3-9.9-11.9L446-18.8z M398.9-32.3
				l24.6-4.9c1.9,4.5,5.2,8.2,9.4,10.7L419.3-3.7l-23.8-15.2c2.3-3.6,3.6-7.8,3.6-12C399-31.3,398.9-31.8,398.9-32.3z M429.3,22.2
				c0,4.2-3.4,7.5-7.5,7.5c-4.2,0-7.5-3.4-7.5-7.5c0-4.2,3.4-7.5,7.5-7.5S429.3,17.9,429.3,22.2z M376.3-38.5c4.2,0,7.5,3.4,7.5,7.5
				c0,4.2-3.4,7.5-7.5,7.5s-7.5-3.4-7.5-7.5S372.2-38.5,376.3-38.5z M368.1-9.7c4.7,1.9,9.7,2.1,14.5,0.5L406,5.9
				c-2.5,2.5-4.4,5.5-5.5,8.8h-33.1c-1.6-4.7-4.8-8.8-8.9-11.5L368.1-9.7z M346.1,29.7c-4.2,0-7.5-3.4-7.5-7.5
				c0-4.2,3.4-7.5,7.5-7.5c4.2,0,7.5,3.4,7.5,7.5S350.2,29.7,346.1,29.7z M368.8,97.8c-4.2,0-7.5-3.4-7.5-7.5c0-4.2,3.4-7.5,7.5-7.5
				c4.2,0,7.5,3.4,7.5,7.5C376.3,94.4,372.9,97.8,368.8,97.8z M373,68c-1.4-0.3-2.9-0.4-4.2-0.4c-0.7,0-1.5,0.1-2.2,0.3l-10.3-25.5
				c5.2-2.6,9.2-7.1,11.1-12.6h33.1c1.4,3.8,3.7,7.3,6.8,9.7L373,68z M430.8,82.6h-40.6c-0.8-2.3-1.9-4.4-3.4-6.3l37.2-30.9
				l12.7,28.5C433.9,76.2,431.9,79.4,430.8,82.6z M443.1,29.7H461c1.8,5.1,5.3,9.3,9.9,11.9l-15.7,26.3c-1-0.1-2.1-0.3-3.1-0.3
				c-0.5,0-1.1,0.1-1.8,0.1l-13-29.1C440,36.1,441.9,33.1,443.1,29.7z M452,97.8c-4.2,0-7.5-3.4-7.5-7.5c0-4.2,3.4-7.5,7.5-7.5
				c4.2,0,7.5,3.4,7.5,7.5C459.7,94.4,456.2,97.8,452,97.8z M484.4,48.6l21.2,17c-3.3,2.9-5.7,6.6-7,10.8l-25.6,5.1
				c-1.1-2.5-2.5-4.7-4.4-6.6L484.4,48.6z M497.6,173.5c-4.2,0-7.5-3.4-7.5-7.5s3.4-7.5,7.5-7.5s7.5,3.4,7.5,7.5
				C505.1,170.2,501.7,173.5,497.6,173.5z M527.8,135.7c0,2.5,0.5,5.1,1.4,7.4l-12.7,10.3c-4.8-7.5-13.5-11.4-22.3-9.7L469,105.5
				c2.2-2.5,4-5.5,4.8-8.8l25.6-5.1c4.9,11.5,18.2,17,29.7,12l9.3,13C531.8,120.7,527.8,127.9,527.8,135.7z M535.2,65.7l14.5-36.1
				c0.3,0,0.5,0.1,1,0.1c1,0,1.8-0.1,2.7-0.3l9.2,18.3c-7.3,4-11.9,11.5-11.9,19.8c0,0.3,0.1,0.5,0.1,1l-10.1,4.1
				C539.2,69.9,537.4,67.6,535.2,65.7z M550.5,143.3c-4.2,0-7.5-3.4-7.5-7.5c0-4.2,3.4-7.5,7.5-7.5c4.2,0,7.5,3.4,7.5,7.5
				S554.8,143.3,550.5,143.3z"/>
		</g>
	</g>
</g>
</svg>
