<?xml version="1.0" encoding="utf-8"?>
<!-- Generator: Adobe Illustrator 19.0.0, SVG Export Plug-In . SVG Version: 6.00 Build 0)  -->
<svg version="1.1" id="Capa_1" xmlns="http://www.w3.org/2000/svg" xmlns:xlink="http://www.w3.org/1999/xlink" x="0px" y="0px"
	 viewBox="176 -128.9 512 512" style="enable-background:new 176 -128.9 512 512;" xml:space="preserve">
<style type="text/css">
	.st0{fill:#FC552B;}
</style>
<g>
	<g>
		<path class="st0" d="M666.3,11.7L666.3,11.7L666.3,11.7l-31.1-4.5c-4.4-0.6-7.4-4.7-6.8-9c0.3-2.1,1.4-4,3.1-5.3L656.7-26
			c3.5-2.7,4.3-7.7,1.6-11.2l-28.8-38.4c-2.7-3.5-7.7-4.3-11.2-1.6l-25.1,18.9c-3.5,2.7-8.5,2-11.2-1.5c-1.3-1.7-1.9-3.9-1.5-6
			l4.4-31.1c0.6-4.4-2.4-8.4-6.8-9.1l0,0l-47.5-6.8c-4.4-0.6-8.4,2.4-9.1,6.8l0,0l-4.4,31.1c-0.6,4.4-4.7,7.4-9,6.8
			c-2.1-0.3-4-1.4-5.3-3.1l-18.9-25.2c-2.7-3.5-7.7-4.3-11.2-1.6l-24,18c-10.9-1.2-21.8-1.2-32.7,0c-71.2,8.1-127.1,64.9-134,136.3
			c-0.2,2.3-0.3,4.5-0.4,6.8H279c-3.8,0-7.1,2.7-7.8,6.4l-5.5,26.3l-22.1-15.3c-3.2-2.2-7.5-1.8-10.2,0.9l-24,24
			c-2.7,2.7-3.1,7-0.9,10.2l15.1,22.2l-26.3,5.5c-3.7,0.8-6.3,4.1-6.3,7.8v32c0,3.8,2.6,7.1,6.4,7.8l26.3,5.5l-15.2,22.1
			c-2.2,3.2-1.8,7.5,0.9,10.2l24,24c2.7,2.7,7,3.1,10.2,0.9l22.1-15.1l5.5,26.3c0.8,3.7,4,6.4,7.8,6.4h32c3.8,0,7.1-2.6,7.8-6.4
			l5.5-26.3l22.2,15.3c3.2,2.2,7.5,1.8,10.2-0.9l12.4-12.5v22.8c0,11.4,6.1,21.9,16,27.6v44.4c0,17.7,14.3,32,32,32h32
			c17.7,0,32-14.3,32-32v-44.5c9.9-5.7,16-16.2,16-27.6v-31.7c0.2-13.3,7.2-25.6,18.5-32.7c6.6-4.3,12.9-9.1,18.8-14.4l-10.7-11.9
			c-5.3,4.7-10.9,9-16.9,12.9c-15.9,10-25.6,27.3-25.8,46.1v31.7c0,8.8-7.2,16-16,16h-64c-8.8,0-16-7.2-16-16v-32.3
			c-0.2-18.4-9.8-35.4-25.4-45.2c-63.3-39.8-82.4-123.4-42.5-186.9c24.7-39.3,67.9-63.3,114.3-63.5c-0.1,0.3-0.2,0.6-0.3,0.9
			c-0.3,2.1,0.3,4.2,1.5,5.9l18.9,25.1c2,2.6,2.2,6.1,0.5,8.9c-1.6,2.8-4.8,4.3-8,3.8l-31.1-4.4c-4.4-0.6-8.4,2.4-9.1,6.8l0,0
			L397,29.8c-0.6,4.4,2.4,8.4,6.8,9.1l0,0l31.1,4.4c4.4,0.6,7.4,4.7,6.8,9c-0.3,2.1-1.4,4-3.1,5.3l-25.1,18.9
			c-3.5,2.7-4.3,7.7-1.6,11.2l28.8,38.4c2.7,3.5,7.7,4.3,11.2,1.6l25.1-18.9c3.5-2.6,8.6-1.9,11.2,1.6c1.3,1.7,1.8,3.8,1.5,5.9
			l-4.4,31.1c-0.6,4.4,2.4,8.4,6.8,9.1l0,0l47.5,6.8c0.4,0,0.8,0.1,1.1,0.1c4,0,7.4-2.9,7.9-6.9l4.4-31.1c0.6-4.4,4.7-7.4,9-6.8
			c2.1,0.3,4,1.4,5.3,3.1l18.9,25.1c2.7,3.5,7.7,4.3,11.2,1.6l38.4-28.8c3.5-2.7,4.3-7.7,1.6-11.2l-18.9-25.1
			c-2-2.6-2.2-6.1-0.5-8.9c1.6-2.8,4.8-4.4,8-3.8l31.1,4.4c4.4,0.6,8.4-2.4,9.1-6.8l0,0l6.8-47.4C673.7,16.4,670.6,12.3,666.3,11.7z
			 M401.1,295.2h64v16h-64V295.2z M401.1,327.2h64v8c0,8.8-7.2,16-16,16h-32c-8.8,0-16-7.2-16-16V327.2z M337.4,189.2
			c4.4,3.6,8.9,6.9,13.7,10c7.6,4.8,13.2,12,16.1,20.5l-17.1,17.1l-16.6-11.5c-7.3-5-17.2-3.2-22.3,4.1c-1.2,1.7-2,3.7-2.5,5.8
			l-4.2,20h-19l-4.2-20c-1.8-8.6-10.3-14.2-19-12.4c-2.1,0.4-4,1.3-5.8,2.5l-16.6,11.5l-14.5-14.6l11.4-16.6
			c5-7.3,3.2-17.2-4.1-22.3c-1.7-1.1-3.7-2-5.8-2.4l-19.9-4.2v-19l19.9-4.2c8.6-1.8,14.2-10.3,12.3-19c-0.4-2.1-1.3-4-2.5-5.7
			l-11.3-16.7L240,97.6l16.6,11.5c7.3,5,17.2,3.2,22.3-4.1c1.2-1.7,2-3.7,2.5-5.8l1.4-6.7c1.3,9.2,3.4,18.3,6.3,27.1
			c-26.3,3.1-45.1,27-42,53.3s27,45.1,53.3,42C316.3,213,330.1,203.4,337.4,189.2z M325,177.9c-6,16.6-24.3,25.2-40.9,19.2
			s-25.2-24.3-19.2-40.9c4.6-12.7,16.6-21.2,30.1-21.1c0.1,0,0.2,0,0.3,0C302.7,151,312.7,165.5,325,177.9z M651.5,58.1l-23.2-3.3
			c-13.1-1.9-25.3,7.2-27.2,20.4c-0.9,6.3,0.7,12.7,4.6,17.8l14.1,18.7l-25.6,19.2l-14.1-18.7c-8-10.6-23-12.8-33.6-4.8
			c-5.1,3.8-8.5,9.5-9.4,15.8l-3.2,23.2l-31.7-4.5l3.3-23.2c1.9-13.1-7.2-25.3-20.4-27.2c-6.3-0.9-12.7,0.7-17.8,4.6l-18.7,14.1
			l-19.2-25.6l18.7-14.1c10.6-8,12.8-23,4.8-33.6c-3.8-5.1-9.5-8.5-15.8-9.4l-23.2-3.3l4.5-31.7l23.2,3.3
			c13.1,1.9,25.3-7.2,27.2-20.4c0.9-6.3-0.7-12.7-4.6-17.8l-14.1-18.8l25.6-19.2l14.1,18.7c8,10.6,23,12.8,33.6,4.8
			c5.1-3.8,8.5-9.5,9.4-15.8l3.3-23.2l31.7,4.5l-3.3,23.2c-1.9,13.1,7.2,25.3,20.4,27.2c6.3,0.9,12.7-0.7,17.8-4.6l18.7-14.1
			l19.2,25.6L621.9-20c-10.6,8-12.8,23-4.8,33.6c3.8,5.1,9.5,8.5,15.8,9.4l23.2,3.3L651.5,58.1z"/>
	</g>
</g>
</svg>
