<?xml version="1.0" encoding="utf-8"?>
<!-- Generator: Adobe Illustrator 19.0.0, SVG Export Plug-In . SVG Version: 6.00 Build 0)  -->
<svg version="1.1" id="Capa_1" xmlns="http://www.w3.org/2000/svg" xmlns:xlink="http://www.w3.org/1999/xlink" x="0px" y="0px"
	 viewBox="176 -128.9 512 512" style="enable-background:new 176 -128.9 512 512;" xml:space="preserve">
<style type="text/css">
	.st0{fill:#FC552B;}
</style>
<g>
	<g>
		<g>
			<path class="st0" d="M648,119.1v-176c0-22.1-17.9-40-40-40H256c-22.1,0-40,17.9-40,40v120c-13.2,0-24,10.8-24,24v240
				c0,13.2,10.8,24,24,24h176c13.2,0,24-10.8,24-24h67c7.5,0,14.5-3.4,19.1-9.4c4.6-6,6.1-13.6,4.1-20.9l-15.7-57.7H536v88
				c0,13.2,10.8,24,24,24h88c13.2,0,24-10.8,24-24v-184C672,129.9,661.2,119.1,648,119.1z M400,327.1c0,4.4-3.6,8-8,8H216
				c-4.4,0-8-3.6-8-8v-16h192V327.1z M400,295.1H208v-176h192V295.1z M400,103.1H208v-16c0-4.4,3.6-8,8-8h176c4.4,0,8,3.6,8,8V103.1
				z M490.8,301c0.7,2.4,0.2,5-1.4,7c-1.6,2-3.8,3.1-6.4,3.1h-67v-16h73.2L490.8,301z M416,279.1v-40h57.9l10.9,40H416z M536,223.1
				H416v-48h120V223.1z M536,143.1v16H416v-72c0-13.2-10.8-24-24-24H232v-120c0-13.2,10.8-24,24-24h352c13.2,0,24,10.8,24,24v176
				h-72C546.8,119.1,536,129.9,536,143.1z M656,327.1c0,4.4-3.6,8-8,8h-88c-4.4,0-8-3.6-8-8v-16h104V327.1z M656,295.1H552v-120h104
				V295.1z M656,159.1H552v-16c0-4.4,3.6-8,8-8h88c4.4,0,8,3.6,8,8V159.1z"/>
		</g>
	</g>
	<g>
		<g>
			
				<rect x="252.1" y="207.1" transform="matrix(-0.7071 0.7071 -0.7071 -0.7071 698.3391 140.9355)" class="st0" width="135.8" height="16"/>
		</g>
	</g>
	<g>
		<g>
			
				<rect x="567.7" y="211.2" transform="matrix(-0.7071 0.7071 -0.7071 -0.7071 1172.3796 -47.1305)" class="st0" width="56.6" height="16"/>
		</g>
	</g>
	<g>
		<g>
			
				<rect x="583.6" y="243.1" transform="matrix(-0.7071 0.7071 -0.7071 -0.7071 1222.1082 -3.9494)" class="st0" width="56.6" height="16"/>
		</g>
	</g>
</g>
</svg>
