<?xml version="1.0" encoding="utf-8"?>
<!-- Generator: Adobe Illustrator 19.0.0, SVG Export Plug-In . SVG Version: 6.00 Build 0)  -->
<svg version="1.1" id="图层_1" xmlns="http://www.w3.org/2000/svg" xmlns:xlink="http://www.w3.org/1999/xlink" x="0px" y="0px"
	 viewBox="-155 28.1 200 200" style="enable-background:new -155 28.1 200 200;" xml:space="preserve">
<style type="text/css">
	.st0{fill:#FC552B;}
</style>
<path class="st0" d="M-1.9,152.5c-0.5,0-0.9,0-1.4,0.1l-25-29.3l17.6-22c2.7,1.4,5.6,2.1,8.6,2.1c10.3,0,18.6-8.4,18.6-18.7
	S8.1,66.1-2.2,66.1s-18.6,8.4-18.6,18.7c0,4.4,1.5,8.4,4.1,11.6l-16.7,21l-18.9-22.2c-0.1-0.1-0.1-0.1-0.2-0.2l0,0
	c-0.1-0.1-0.1-0.1-0.2-0.2l0,0c-0.6-0.5-1.4-0.9-2.2-0.9l0,0H-55h-0.1h-0.1h-0.1c0,0,0,0-0.1,0h-0.1l0,0c-0.9,0.1-1.7,0.4-2.4,1l0,0
	L-58,95l-0.1,0.1l0,0c-0.1,0.1-0.1,0.1-0.2,0.2L-76,117.8l-18-21c2.6-3.2,4.2-7.3,4.2-11.8c0-10.3-8.4-18.6-18.7-18.6
	s-18.6,8.4-18.6,18.7s8.4,18.6,18.7,18.6c2.9,0,5.8-0.7,8.4-2l19.1,22.3l-23.2,29.4c-1.4-0.3-2.7-0.5-4.1-0.5
	c-10.3,0-18.6,8.4-18.6,18.7s8.4,18.6,18.7,18.6s18.6-8.4,18.6-18.7c0-6-2.9-11.4-7.3-14.8l21.1-26.8l9.7,11.3
	c-3.2,3-5.2,7.2-5.2,12c0,9,7.3,16.2,16.3,16.2s16.2-7.3,16.2-16.3c0-4.3-1.7-8.1-4.4-11l10.1-12.6l21.9,25.7
	c-5.5,3.3-9.2,9.3-9.2,16.1c0,10.3,8.4,18.6,18.7,18.6S17,181.5,17,171.2C16.8,160.8,8.4,152.4-1.9,152.5L-1.9,152.5z M-49.8,137.7
	c-1.7-0.6-3.5-0.9-5.4-0.9c-1.4,0-2.7,0.2-4,0.5L-71,123.5l15.8-20l16.9,19.8L-49.8,137.7L-49.8,137.7z"/>
</svg>
