<?xml version="1.0" encoding="utf-8"?>
<!-- Generator: Adobe Illustrator 19.0.0, SVG Export Plug-In . SVG Version: 6.00 Build 0)  -->
<svg version="1.1" id="图层_1" xmlns="http://www.w3.org/2000/svg" xmlns:xlink="http://www.w3.org/1999/xlink" x="0px" y="0px"
	 viewBox="-155 28.1 200 200" style="enable-background:new -155 28.1 200 200;" xml:space="preserve">
<style type="text/css">
	.st0{fill:#FC552B;}
</style>
<path class="st0" d="M-55,162.5c-30.4,0-55.1-24.6-55.1-55.1s24.7-55,55.1-55S0.2,77.1,0.2,107.5S-24.6,162.5-55,162.5z M-55,155.6
	c26.6,0,48.2-21.5,48.2-48.1S-28.4,59.4-55,59.4c-26.6,0-48.2,21.5-48.2,48.1S-81.6,155.6-55,155.6L-55,155.6z"/>
<path class="st0" d="M-89.5,221c-30.4,0-55.2-24.6-55.2-55.1s24.7-55.1,55.2-55.1c30.4,0,55.2,24.6,55.2,55.1S-59,221-89.5,221z
	 M-89.5,214c26.6,0,48.2-21.5,48.2-48.1s-21.6-48.1-48.2-48.1s-48.2,21.5-48.2,48.1S-116.1,214-89.5,214L-89.5,214z"/>
<path class="st0" d="M-24,221c-30.4,0-55.2-24.6-55.2-55.1s24.7-55.1,55.2-55.1c30.4,0,55.1,24.6,55.1,55.1S6.5,221-24,221z
	 M-24,214c26.6,0,48.2-21.5,48.2-48.1S2.6,117.8-24,117.8s-48.2,21.5-48.2,48.1S-50.6,214-24,214L-24,214z"/>
<path class="st0" d="M24.2,214.1c-11.4,0-20.7-9.3-20.7-20.7c0-11.4,9.3-20.7,20.7-20.7s20.7,9.2,20.7,20.7
	C44.9,204.8,35.7,214.1,24.2,214.1z M-134.2,214.1c-11.4,0-20.7-9.2-20.7-20.7c0-11.4,9.3-20.7,20.7-20.7s20.7,9.3,20.7,20.7
	C-113.5,204.8-122.8,214.1-134.2,214.1z M-55,76.6c-11.4,0-20.7-9.3-20.7-20.7c0-11.4,9.3-20.7,20.7-20.7s20.7,9.2,20.7,20.7
	C-34.3,67.3-43.6,76.6-55,76.6z"/>
</svg>
