<?xml version="1.0" encoding="utf-8"?>
<!-- Generator: Adobe Illustrator 19.0.0, SVG Export Plug-In . SVG Version: 6.00 Build 0)  -->
<svg version="1.1" id="图层_1" xmlns="http://www.w3.org/2000/svg" xmlns:xlink="http://www.w3.org/1999/xlink" x="0px" y="0px"
	 viewBox="-155 28.5 200 199.6" style="enable-background:new -155 28.5 200 199.6;" xml:space="preserve">
<style type="text/css">
	.st0{fill:#FC552B;}
</style>
<path class="st0" d="M-10.8,134.2H8.4c-3,29.9-27.2,53.6-57.3,56v-17.9c-0.1-3.3-2.8-5.9-6.1-5.9c-3.2,0.1-5.8,2.7-5.9,5.9v17.7
	c-29.2-3.2-52.4-26.6-55.4-55.9h17.3c3.3,0.1,6-2.6,6.1-5.9c0.1-3.3-2.6-6-5.9-6.1c-0.1,0-0.2,0-0.2,0h-17.3
	c2.6-29.7,26-53.4,55.5-56.7v18.6c0,3.3,2.7,6,6,6c3.3,0,6-2.7,6-6V65.4C-18.6,67.8,5.7,92,8.4,122.3h-19.3c-3.3,0-6,2.7-6,6
	S-14.1,134.2-10.8,134.2 M39.1,122.3H20.4C17.7,85.4-12,55.9-49,53.4V34.2c-0.1-3.3-2.8-5.9-6.1-5.8c-3.2,0.1-5.7,2.6-5.8,5.8v19.3
	c-36.1,3.3-64.8,32.5-67.5,68.7H-149c-3.3-0.1-6,2.6-6.1,5.9c-0.1,3.3,2.6,6,5.9,6.1c0.1,0,0.2,0,0.2,0h20.6
	c3.1,35.9,31.6,64.6,67.4,67.9v20.1c0,3.3,2.7,6,6,6c3.3,0,6-2.7,6-6l0,0v-20c36.7-2.5,66.2-31.5,69.3-68h18.7c3.3,0,6-2.7,6-6
	C45.1,124.9,42.4,122.3,39.1,122.3L39.1,122.3 M-54.9,120.8c-4.1,0-7.5,3.3-7.5,7.5c0,0,0,0,0,0c0,4.1,3.4,7.5,7.5,7.5c0,0,0,0,0,0
	c4.1,0,7.5-3.3,7.5-7.5c0,0,0,0,0,0C-47.4,124.1-50.8,120.8-54.9,120.8C-54.9,120.8-54.9,120.8-54.9,120.8"/>
</svg>
