<?xml version="1.0" encoding="utf-8"?>
<!-- Generator: Adobe Illustrator 19.0.0, SVG Export Plug-In . SVG Version: 6.00 Build 0)  -->
<svg version="1.1" id="图层_1" xmlns="http://www.w3.org/2000/svg" xmlns:xlink="http://www.w3.org/1999/xlink" x="0px" y="0px"
	 viewBox="20 28.1 200 200" style="enable-background:new 20 28.1 200 200;" xml:space="preserve">
<style type="text/css">
	.st0{fill:#FC552B;}
</style>
<g>
	<path class="st0" d="M120,223.1c-52.3,0-94.9-42.6-94.9-94.9C25.1,98,39,70.2,63.3,52.1c1.8-1.3,4.3-0.9,5.6,0.9
		c1.3,1.8,0.9,4.3-0.9,5.6c-22.2,16.6-35,42-35,69.6c0,47.9,38.9,86.9,86.9,86.9s86.9-38.9,86.9-86.9S168,41.2,120,41.2
		c-8.7,0-17.4,1.3-25.6,3.8c-2.1,0.7-4.4-0.6-5-2.7c-0.7-2.1,0.6-4.4,2.7-5c9-2.8,18.4-4.2,27.9-4.2c52.3,0,94.9,42.6,94.9,94.9
		S172.4,223.1,120,223.1z"/>
	<path class="st0" d="M178.2,122.4l-24.5-32.7c-0.5-0.7-1.6-0.9-2.8-0.9c-1.1,0-2.3,0.3-2.8,0.9l-22.6,30.8
		c-2.7,4.1-1.3,5.6,3.8,5.6h11.3c-0.1,5.5-0.4,11.1-0.9,14.9c-2.3,18.1-13.9,23-14.3,23.3c-1.7,0.7-1.4,3.2,0.7,3.2
		c29.2,0,36-33.8,37-41.4h11.5c0.2,0,0.4,0,0.8,0C176.9,126.2,180.2,125.8,178.2,122.4z"/>
	<path class="st0" d="M110.8,130.2H99.5c0.1-5.5,0.4-11.1,0.9-14.9c2.3-18.1,13.9-23,14.3-23.3c1.7-0.7,1.4-3.2-0.7-3.2
		c-29.2,0-36,33.8-37,41.4H65.7c-0.2,0-0.4,0-0.8,0c-1.7,0-5,0.5-3,3.8l24.5,32.7c0.5,0.7,1.6,0.9,2.8,0.9c1.1,0,2.3-0.3,2.8-0.9
		l22.6-30.8C117.3,131.7,116,130.2,110.8,130.2z"/>
</g>
</svg>
