<?xml version="1.0" encoding="utf-8"?>
<!-- Generator: Adobe Illustrator 19.0.0, SVG Export Plug-In . SVG Version: 6.00 Build 0)  -->
<svg version="1.1" id="图层_1" xmlns="http://www.w3.org/2000/svg" xmlns:xlink="http://www.w3.org/1999/xlink" x="0px" y="0px"
	 viewBox="20 28.1 200 200" style="enable-background:new 20 28.1 200 200;" xml:space="preserve">
<style type="text/css">
	.st0{fill:#FC552B;}
</style>
<path class="st0" d="M29,130.4c-3.6,0-6.5,3.2-6.5,7.1v78.9c0,3.9,2.9,7.1,6.5,7.1c3.6,0,6.5-3.2,6.5-7.1v-78.9
	C35.6,133.6,32.6,130.4,29,130.4L29,130.4z M89.7,117.4c-3.6,0-6.5,3.2-6.5,7v92.1c0,3.9,2.9,7,6.5,7c3.6,0,6.5-3.1,6.5-7v-92.1
	C96.2,120.5,93.3,117.4,89.7,117.4z M150.3,104.4c-3.6,0-6.6,3-6.6,6.6v105.8c0,3.7,2.9,6.6,6.6,6.6c3.6,0,6.6-3,6.6-6.6V111.1
	C156.9,107.4,154,104.4,150.3,104.4L150.3,104.4z M211,77.7c-3.6,0-6.5,3.1-6.5,7v131.2c0,3.9,2.9,7,6.5,7c3.6,0,6.5-3.1,6.5-7V84.6
	C217.5,80.8,214.6,77.7,211,77.7z M219.2,37.5c-1.2-1.8-3.1-2.8-5.1-2.8l0.2-0.2h-37.6c-2.9,0-4,3.8-1.5,5.4l14.1,8.6
	c-2.7,1.6-5.4,3.2-8.1,4.8l-25.8,15.2c-7.4,4.4-14.9,8.7-22.3,13.1c-2.6,1.5-5.3,3-7.9,4.5c-3.2-2.3-6.4-4.6-9.6-6.9L96,65.1
	l-4.5-3.2c-2-1.5-5.2-0.8-6.9,0.9c-3.6,3.5-7.1,7-10.7,10.5c-5.7,5.6-11.4,11.2-17.1,16.8l-0.5,0.5c-7.9-5.7-15.8-11.4-23.8-17.1
	c-1.3-0.9-2.5-1.8-3.8-2.7c-2.4-1.8-6.5-0.5-7.8,2c-1.6,3-0.5,5.9,2,7.8c9.1,6.5,18.2,13.1,27.2,19.6l3.8,2.7c2,1.5,5.2,0.8,6.9-0.9
	c3.6-3.5,7.1-7,10.7-10.5l17.1-16.8l0.5-0.5l8.8,6.3c8,5.8,16,11.5,24,17.3c1.6,1.2,4.1,1,5.8,0c3-1.7,5.9-3.5,8.9-5.2
	c7.1-4.2,14.2-8.4,21.3-12.5c8.6-5.1,17.2-10.1,25.8-15.2c7.4-4.4,14.9-8.7,22.3-13.1c3.6-2.1,7.3-4.2,10.8-6.4
	c0.1,0,0.1-0.1,0.2-0.1C219.7,43.8,220.9,40.1,219.2,37.5L219.2,37.5z"/>
</svg>
