<?xml version="1.0" encoding="utf-8"?>
<!-- Generator: Adobe Illustrator 19.0.0, SVG Export Plug-In . SVG Version: 6.00 Build 0)  -->
<svg version="1.1" id="图层_1" xmlns="http://www.w3.org/2000/svg" xmlns:xlink="http://www.w3.org/1999/xlink" x="0px" y="0px"
	 viewBox="20 28.1 200 200" style="enable-background:new 20 28.1 200 200;" xml:space="preserve">
<style type="text/css">
	.st0{fill:#FC552B;}
</style>
<g>
	<path class="st0" d="M122.9,62.2H80.8c-3.6,0-6.6,3-6.6,6.6c0,3.6,3,6.6,6.6,6.6h42.1c3.6,0,6.6-3,6.6-6.6
		C129.5,65.2,126.6,62.2,122.9,62.2L122.9,62.2z M122.9,72.1H80.8c-1.9,0-3.3-1.5-3.3-3.3c0-1.9,1.5-3.3,3.3-3.3h42.1
		c1.9,0,3.3,1.5,3.3,3.3C126.2,70.6,124.8,72.1,122.9,72.1L122.9,72.1z"/>
	<path class="st0" d="M101.8,47.4c-7.5,0-13.5,6.1-13.5,13.5v3c0,0.9,0.7,1.6,1.6,1.6h6.6c0.9,0,1.6-0.7,1.6-1.6v-3
		c0-2,1.6-3.7,3.7-3.7s3.7,1.6,3.7,3.7v3c0,0.9,0.7,1.6,1.6,1.6h6.6c0.9,0,1.6-0.7,1.6-1.6v-3C115.4,53.4,109.3,47.4,101.8,47.4z
		 M112.1,62.2h-3.4v-1.4c0-3.8-3.1-6.9-6.9-6.9c-3.8,0-6.9,3.1-6.9,6.9v1.4h-3.4v-1.4c0-5.7,4.6-10.2,10.2-10.2
		c5.7,0,10.2,4.6,10.2,10.2L112.1,62.2z"/>
	<path class="st0" d="M120.7,72.1c-0.9,0-1.6,0.7-1.6,1.6v4.4c0,1.4-1.1,2.4-2.4,2.4H87.1c-1.4,0-2.4-1.1-2.4-2.4v-4.4
		c0-0.9-0.7-1.6-1.6-1.6c-0.9,0-1.6,0.7-1.6,1.6v4.4c0,3.1,2.5,5.7,5.7,5.7h29.6c3.1,0,5.7-2.5,5.7-5.7v-4.4
		C122.3,72.8,121.6,72.1,120.7,72.1z"/>
	<path class="st0" d="M153.3,136.6c0.8,0.5,1.7,0.1,2.2-0.6c0.1-0.3,0.2-0.5,0.2-0.8V72.6c0-4.8-3.9-8.8-8.8-8.8h-20.3
		c-0.9,0-1.6,0.7-1.6,1.6c0,0.4,0.1,0.8,0.4,1.1c1.2,1.4,1.1,3.5-0.3,4.7c-0.6,0.6-1.4,0.8-2.3,0.8H80.8c-1.9,0-3.3-1.5-3.3-3.3
		c0-0.8,0.3-1.6,0.8-2.3c0.6-0.6,0.5-1.7-0.1-2.3c-0.3-0.3-0.7-0.4-1.1-0.4H56.4c-4.8,0-8.8,3.9-8.8,8.8V200c0,4.8,3.9,8.8,8.8,8.8
		H147c4.8,0,8.8-3.9,8.8-8.8v-19c0-0.9-0.7-1.6-1.6-1.6c-0.3,0-0.5,0.1-0.8,0.2c-9.5,5.2-21.3,3.4-29-4.2c-9.5-9.5-9.5-25,0-34.6
		C132,133.2,143.8,131.5,153.3,136.6z M114,158.1c0,7.3,2.9,14.4,8.1,19.6c8,7.9,20,10.2,30.5,5.9v16.4c0,3.1-2.5,5.5-5.5,5.5H56.4
		c-3.1,0-5.5-2.5-5.5-5.5V72.6c0-3.1,2.5-5.5,5.5-5.5h18c-1,3.5,1.2,7.1,4.6,8c0.6,0.1,1.1,0.2,1.7,0.2h42.1c3.6,0,6.6-3,6.6-6.6
		c0-0.6-0.1-1.2-0.2-1.7H147c3.1,0,5.5,2.5,5.5,5.5v60c-10.4-4.4-22.4-2.1-30.5,5.9C116.9,143.7,113.9,150.7,114,158.1L114,158.1z"
		/>
	<path class="st0" d="M190.4,197.9L172,179.5c-2.5-2.4-6.6-2.4-9,0.2c-2.4,2.4-2.4,6.4,0,8.9l18.4,18.4c2.5,2.5,6.5,2.5,9,0l0,0
		C192.9,204.4,192.9,200.4,190.4,197.9z M188.2,204.6c-1.2,1.2-3.2,1.2-4.5,0l-18.4-18.4c-1.2-1.2-1.2-3.2,0-4.5
		c1.2-1.2,3.2-1.2,4.5,0l18.4,18.4C189.4,201.4,189.4,203.4,188.2,204.6L188.2,204.6z"/>
	<path class="st0" d="M178.7,186.1l-4.6-4.6c-0.6-0.6-1.7-0.6-2.3,0l-6.8,6.8c-0.6,0.6-0.6,1.7,0,2.3l4.6,4.6c0.6,0.6,1.7,0.6,2.3,0
		l6.8-6.8C179.3,187.8,179.3,186.7,178.7,186.1L178.7,186.1L178.7,186.1z M170.8,191.7l-2.3-2.3l4.5-4.5l2.3,2.3L170.8,191.7z"/>
	<path class="st0" d="M168.4,178l-5.1-5.1c-0.6-0.6-1.7-0.6-2.3,0c-0.1,0.1-0.1,0.1-0.1,0.1c-1.2,1.6-2.6,3-4.2,4.2
		c-0.7,0.6-0.8,1.5-0.3,2.3c0.1,0.1,0.1,0.1,0.1,0.1l5.1,5.1c0.6,0.6,1.7,0.6,2.3,0c0.3-0.3,0.5-0.6,0.5-1c0.1-1.6,1.4-2.9,3-3
		c0.9-0.1,1.5-0.8,1.5-1.7C168.9,178.8,168.7,178.4,168.4,178L168.4,178z M163,179.5c-0.4,0.4-0.7,0.8-1,1.2l-1.9-1.9
		c0.4-0.4,0.8-0.7,1.2-1.1l0,0c0.4-0.4,0.7-0.8,1.1-1.2l1.9,1.9C163.8,178.8,163.4,179.1,163,179.5z"/>
	<path class="st0" d="M147,70.4h-20.3c-0.5,0-0.9,0.2-1.2,0.5c-0.6,0.7-1.5,1.1-2.5,1.1H80.8c-1,0-1.9-0.4-2.5-1.1
		c-0.3-0.3-0.8-0.5-1.2-0.5H56.4c-1.2,0-2.2,1-2.2,2.2V200c0,1.2,1,2.2,2.2,2.2H128c0.5,0,0.8-0.2,1.2-0.5l16.5-16.5
		c0.6-0.6,0.6-1.7,0-2.3c-0.3-0.3-0.8-0.5-1.3-0.5c-13.4,1.5-25.5-8.1-27-21.5c-1.5-13.4,8.1-25.5,21.5-27c2.8-0.3,5.6-0.1,8.3,0.5
		c0.8,0.2,1.7-0.3,1.9-1.2c0-0.1,0.1-0.3,0.1-0.4V72.6C149.1,71.4,148.1,70.4,147,70.4z M145.9,130.8c-15.1-2.4-29.2,8-31.6,23.1
		c-2.4,15.1,8,29.2,23.1,31.6c1,0.2,2.1,0.3,3.2,0.3L127.3,199H57.5V73.7h19c1.2,1,2.8,1.7,4.3,1.7h42.1c1.6,0,3.2-0.6,4.3-1.7h18.7
		V130.8z"/>
	<path class="st0" d="M146,183.3c-0.3-0.6-1-1-1.6-0.9c-5,0.6-10-0.4-14.4-2.8c-0.3-0.1-0.5-0.2-0.8-0.2h-0.7c-1.2,0-2.2,1-2.2,2.2
		v18.9c0,0.9,0.7,1.6,1.6,1.6c0.5,0,0.8-0.2,1.2-0.5l16.5-16.5C146.2,184.7,146.3,183.9,146,183.3z M129.7,196.7V183
		c3.4,1.7,7.1,2.6,10.9,2.7L129.7,196.7z"/>
	<path class="st0" d="M158.9,140.8c-9.6-9.5-25-9.5-34.6,0s-9.5,25,0,34.6s25,9.5,34.6,0C168.5,165.9,168.5,150.4,158.9,140.8z
		 M141.6,178.2c-11.1,0-20.2-9-20.2-20.2s9-20.2,20.2-20.2c11.1,0,20.2,9,20.2,20.2C161.8,169.2,152.8,178.2,141.6,178.2z"/>
	<g>
		<path class="st0" d="M105.5,121.4H99c-0.8,0-1.4,0.6-1.4,1.4v6.5c0,0.8,0.6,1.4,1.4,1.4h6.4c0.8,0,1.4-0.6,1.4-1.4h0.1v-6.5
			C106.9,122,106.3,121.4,105.5,121.4z"/>
		<path class="st0" d="M105.5,159.4H99c-0.8,0-1.4,0.6-1.4,1.4v6.5c0,0.8,0.6,1.4,1.4,1.4h6.4c0.8,0,1.4-0.6,1.4-1.4h0.1v-6.5
			C106.9,160.1,106.3,159.4,105.5,159.4z"/>
		<path class="st0" d="M77.8,121.4c-0.8,0-1.4,0.6-1.4,1.4v6.5c0,0.8,0.6,1.4,1.4,1.4h6.5c0.8,0,1.4-0.6,1.4-1.4l0,0v-6.5
			c0-0.8-0.6-1.4-1.4-1.4H77.8z"/>
		<path class="st0" d="M85.7,160.9c0-0.8-0.6-1.4-1.4-1.4h-6.5c-0.8,0-1.4,0.6-1.4,1.4v6.5c0,0.8,0.6,1.4,1.4,1.4h6.5
			c0.8,0,1.4-0.6,1.4-1.4l0,0L85.7,160.9L85.7,160.9z"/>
		<path class="st0" d="M128,129.3v-6.5c0-0.8-0.6-1.4-1.4-1.4h-6.5c-0.8,0-1.4,0.6-1.4,1.4v6.5c0,0.8,0.6,1.4,1.4,1.4h6.5
			C127.4,130.7,128,130.1,128,129.3z"/>
		<path class="st0" d="M139.3,132.3c3-0.4,6-0.2,8.8,0.5V72.6c0-0.3-0.3-0.5-0.6-0.6h-20.3c-1,1-2.3,1.7-3.7,1.7H81.4
			c-1.4,0-2.8-0.6-3.7-1.7H57.1c-0.3,0-0.5,0.3-0.6,0.6V200c0,0.3,0.3,0.5,0.6,0.6h71.6l16.5-16.5c-14.3,1.6-27.2-8.6-28.8-22.9
			C114.8,146.8,125,133.9,139.3,132.3z M74.1,101.2h20c0.9,0,1.6,0.7,1.6,1.6s-0.7,1.6-1.6,1.6h-20c-0.9,0-1.6-0.7-1.6-1.6
			S73.2,101.2,74.1,101.2z M74.1,109.7h47.8c0.8,0,1.6,0.7,1.6,1.6c0,0.9-0.7,1.6-1.6,1.6H74.1c-0.9,0-1.6-0.7-1.6-1.6
			C72.5,110.4,73.2,109.7,74.1,109.7z M89,122.9v6.5c0,2.6-2.1,4.6-4.6,4.6h-6.5c-2.6,0-4.6-2.1-4.6-4.6v-6.5c0-2.6,2.1-4.6,4.6-4.6
			h6.5C86.9,118.2,89,120.3,89,122.9z M74.1,139.2h20c0.9,0,1.6,0.7,1.6,1.6s-0.7,1.6-1.6,1.6h-20c-0.9,0-1.6-0.7-1.6-1.6
			S73.2,139.2,74.1,139.2z M89,167.4c0,2.6-2.1,4.6-4.6,4.6h-6.5c-2.6,0-4.6-2.1-4.6-4.6v-6.5c0-2.6,2.1-4.6,4.6-4.6h6.5
			c2.6,0,4.6,2.1,4.6,4.6L89,167.4L89,167.4z M110.1,167.4c0,2.6-2.1,4.6-4.6,4.6H99c-2.6,0-4.6-2.1-4.6-4.6v-6.5
			c0-2.6,2.1-4.6,4.6-4.6h6.5c2.5,0,4.6,2.1,4.6,4.6V167.4z M108.5,150.9H74.1c-0.9,0-1.6-0.7-1.6-1.6s0.7-1.6,1.6-1.6h34.4
			c0.9,0,1.7,0.7,1.7,1.6S109.4,150.9,108.5,150.9z M110.1,129.4c0,2.6-2.1,4.6-4.6,4.6H99c-2.6,0-4.6-2.1-4.6-4.6v-6.5
			c0-2.6,2.1-4.6,4.6-4.6h6.5c2.5,0,4.6,2.1,4.6,4.6V129.4z M115.5,129.4v-6.5c0-2.6,2.1-4.6,4.6-4.6h6.5c2.5,0,4.6,2.1,4.6,4.6v6.5
			c0,2.6-2.1,4.6-4.6,4.6h-6.5C117.6,134,115.5,131.9,115.5,129.4z"/>
	</g>
	<circle class="st0" cx="141.7" cy="158.1" r="14.5"/>
</g>
</svg>
