<?xml version="1.0" encoding="utf-8"?>
<!-- Generator: Adobe Illustrator 19.0.0, SVG Export Plug-In . SVG Version: 6.00 Build 0)  -->
<svg version="1.1" id="图层_1" xmlns="http://www.w3.org/2000/svg" xmlns:xlink="http://www.w3.org/1999/xlink" x="0px" y="0px"
	 viewBox="20 28.1 200 200" style="enable-background:new 20 28.1 200 200;" xml:space="preserve">
<style type="text/css">
	.st0{fill:#FC552B;}
</style>
<path class="st0" d="M195.1,157h-19.6l-34.7-60.1c4.6-3.5,9.3-8.1,9.3-15V58.7c-1.1-9.3-9.3-17.4-18.5-17.4h-23.1
	c-9.3,0-17.4,8.1-17.4,17.4v23.1c0,6.9,3.5,11.6,9.3,15L65.6,157H44.8c-9.3,0-17.4,8.1-17.4,17.4v23.1c0,9.3,8.1,17.4,17.4,17.4
	h23.1c9.3,0,17.4-8.1,17.4-17.4v-5.7h69.4v5.7c0,9.3,8.1,17.4,17.4,17.4h23.1c9.3,0,17.4-8.1,17.4-17.4v-23.1
	C212.5,165.1,204.4,157,195.1,157z M102.6,58.7c0-3.5,2.3-5.7,5.7-5.7h23.1c3.5,0,5.7,2.3,5.7,5.7v23.1c0,3.5-2.3,5.7-5.7,5.7h-23.1
	c-3.5,0-5.7-2.3-5.7-5.7V58.7z M73.7,197.5c0,3.5-2.3,5.7-5.7,5.7H44.9c-3.5,0-5.7-2.3-5.7-5.7v-23.1c0-3.5,2.3-5.7,5.7-5.7H68
	c3.5,0,5.7,2.3,5.7,5.7V197.5z M85.3,180.1v-5.7c0-6.9-3.5-11.6-9.3-15l34.7-60.1h16.2l34.7,60.1c-4.6,3.5-9.3,8.1-9.3,15v5.7H85.3z
	 M201,197.5c0,3.5-2.3,5.7-5.7,5.7h-23.1c-3.5,0-5.7-2.3-5.7-5.7v-23.1c0-3.5,2.3-5.7,5.7-5.7h23.1c3.5,0,5.7,2.3,5.7,5.7V197.5z"/>
</svg>
