<?xml version="1.0" encoding="utf-8"?>
<!-- Generator: Adobe Illustrator 19.0.0, SVG Export Plug-In . SVG Version: 6.00 Build 0)  -->
<svg version="1.1" id="图层_1" xmlns="http://www.w3.org/2000/svg" xmlns:xlink="http://www.w3.org/1999/xlink" x="0px" y="0px"
	 viewBox="20 28.1 200 200" style="enable-background:new 20 28.1 200 200;" xml:space="preserve">
<style type="text/css">
	.st0{fill:#FC552B;}
</style>
<g>
	<path class="st0" d="M87,125.7c-1.1,1.6-2.7,2.8-4.4,3.7c-2.1,0.9-4.3,1.4-6.7,1.2c-3.3,0.2-6.7-0.7-9.4-2.6
		c-2.2-1.8-3.7-4.6-4.1-7.5l5.3-0.9c0.1,1.8,1.1,3.6,2.5,4.9c1.6,1.2,3.7,1.8,5.7,1.7c2,0.1,3.8-0.4,5.4-1.5
		c1.1-0.9,1.7-2.1,1.8-3.6c0-1.1-0.6-2.2-1.6-2.8c-1.7-0.9-3.6-1.5-5.4-1.8c-2.8-0.6-5.5-1.5-8.1-2.6c-1.5-0.6-2.6-1.7-3.5-3
		c-0.7-1.2-1.1-2.7-1.1-4.2c0-2.7,1.4-5.3,3.6-6.9c1-0.7,2.2-1.2,3.3-1.6c1.5-0.4,3.1-0.6,4.6-0.6c2.2,0,4.4,0.4,6.5,1.1
		c1.6,0.5,3.1,1.6,4.1,3c1,1.5,1.6,3.1,1.8,4.9l-5.3,0.7c-0.1-1.5-0.9-2.8-2.1-3.8c-1.4-1-3.1-1.5-4.8-1.4c-1.8-0.1-3.7,0.2-5.3,1.2
		c-1,0.6-1.6,1.7-1.6,2.8c0,0.7,0.4,1.4,0.9,1.8c0.5,0.6,1.2,1.1,2.1,1.5c0.5,0.1,2.1,0.6,4.7,1.4c2.7,0.6,5.3,1.5,7.9,2.5
		c1.5,0.6,2.7,1.6,3.6,2.8c0.9,1.4,1.4,3,1.2,4.6C88.6,122.6,88,124.2,87,125.7L87,125.7z"/>
	<path class="st0" d="M173.1,125.7c-1.1,1.6-2.7,2.8-4.4,3.7c-2.1,0.9-4.3,1.4-6.7,1.2c-3.3,0.2-6.7-0.7-9.4-2.6
		c-2.2-1.8-3.7-4.6-4.1-7.5l5.3-0.9c0.1,1.8,1.1,3.6,2.5,4.9c1.6,1.2,3.7,1.8,5.7,1.7c2,0.1,3.8-0.4,5.4-1.5
		c1.1-0.9,1.7-2.1,1.8-3.6c0-1.1-0.6-2.2-1.6-2.8c-1.7-0.9-3.6-1.5-5.4-1.8c-2.8-0.6-5.5-1.5-8.1-2.6c-1.5-0.6-2.6-1.7-3.5-3
		c-0.7-1.2-1.1-2.7-1.1-4.2c0-2.7,1.4-5.3,3.6-6.9c1-0.7,2.2-1.2,3.3-1.6c1.5-0.4,3.1-0.6,4.6-0.6c2.2,0,4.4,0.4,6.5,1.1
		c1.6,0.5,3.1,1.6,4.1,3c1,1.5,1.6,3.1,1.8,4.9l-5.3,0.7c-0.1-1.5-0.9-2.8-2.1-3.8c-1.4-1-3.1-1.5-4.8-1.4c-1.8-0.1-3.7,0.2-5.3,1.2
		c-1,0.6-1.6,1.7-1.6,2.8c0,0.6,0.2,1.4,0.6,1.8c0.5,0.6,1.2,1.1,2.1,1.5c0.5,0.1,2.1,0.6,4.7,1.4c2.7,0.6,5.3,1.5,7.9,2.5
		c1.5,0.6,2.7,1.6,3.6,2.8c0.9,1.4,1.4,3,1.2,4.6C174.6,122.5,174.1,124.2,173.1,125.7L173.1,125.7z"/>
	<path class="st0" d="M192.5,64.7H47.5c-5.8,0-10.5,4.7-10.5,10.5v82.6c0,5.8,4.7,10.5,10.5,10.5h144.9c5.8,0,10.5-4.7,10.5-10.5
		V75.2C202.9,69.4,198.2,64.7,192.5,64.7z M196.2,150.9c0,5.8-4.7,10.5-10.5,10.5H54.3c-5.8,0-10.5-4.7-10.5-10.5V81.8
		c0-5.8,4.7-10.5,10.5-10.5h131.3c5.8,0,10.5,4.7,10.5,10.5V150.9z"/>
	<path class="st0" d="M115.5,126.8c-0.2-2.6-0.4-5.2-0.2-7.8v-5.9c0-1.4,0-2.7-0.2-4.1c-0.2-1.1-0.7-2.1-1.4-3
		c-0.9-0.9-1.8-1.6-3.1-2c-1.7-0.6-3.6-0.9-5.4-0.7c-2,0-3.9,0.2-5.9,1c-1.5,0.5-2.8,1.4-3.9,2.6c-1,1.4-1.6,2.8-2,4.4l4.3,0.6
		c0.2-1.5,1.1-2.8,2.2-3.8c1.4-0.9,3-1.2,4.7-1.1c1.8-0.1,3.6,0.4,5.1,1.5c1,1,1.4,2.3,1.2,3.8v1.1c-2.6,0.7-5.2,1.2-7.9,1.5
		c-1.4,0.1-2.6,0.4-3.9,0.6c-1.1,0.4-2.2,0.9-3.2,1.5c-1,0.6-1.7,1.5-2.2,2.6c-1.6,3-1,6.5,1.4,8.9c1.8,1.5,4.2,2.2,6.5,2.1
		c1.6,0,3.3-0.2,4.8-0.9c1.7-0.6,3.3-1.6,4.7-3c0.1,1.1,0.4,2.2,0.9,3.2h4.6C116.1,129,115.7,127.9,115.5,126.8z M110.1,123.1
		c-0.6,1.2-1.6,2.3-3,3c-1.4,0.7-3,1.1-4.6,1.1c-1.4,0.1-2.8-0.4-3.9-1.1c-0.9-0.7-1.4-1.7-1.4-3c0-0.7,0.2-1.5,0.6-2.1
		c0.4-0.6,1-1.1,1.7-1.5c1.2-0.4,2.5-0.6,3.8-0.9c2.5-0.2,4.9-0.9,7.2-1.7v1.6C110.9,120.2,110.7,121.6,110.1,123.1z"/>
	<path class="st0" d="M143.4,126.8c-0.2-2.6-0.4-5.2-0.2-7.8v-5.9c0-1.4,0-2.7-0.2-4.1c-0.2-1.1-0.7-2.1-1.4-3
		c-0.9-0.9-1.8-1.6-3.1-2c-1.7-0.6-3.6-0.9-5.4-0.7c-2,0-3.9,0.2-5.9,1c-1.5,0.5-2.8,1.4-3.9,2.6c-1,1.4-1.6,2.8-2,4.4l4.3,0.6
		c0.2-1.5,1.1-2.8,2.2-3.8c1.4-0.9,3-1.2,4.6-1.1c1.8-0.1,3.6,0.4,5.1,1.5c1,1,1.4,2.3,1.2,3.8v1.1c-2.6,0.7-5.2,1.2-7.9,1.5
		c-1.4,0.1-2.6,0.4-3.9,0.6c-1.1,0.4-2.2,0.9-3.2,1.5c-1,0.6-1.7,1.5-2.2,2.6c-1.6,3-1,6.5,1.5,8.9c1.8,1.5,4.2,2.2,6.5,2.1
		c1.6,0,3.3-0.2,4.8-0.9c1.7-0.6,3.3-1.6,4.7-3c0.1,1.1,0.4,2.2,0.9,3.2h4.6C143.9,129,143.6,127.9,143.4,126.8z M137.9,123.1
		c-0.6,1.2-1.6,2.3-3,3c-1.4,0.7-3,1.1-4.6,1.1c-1.4,0.1-2.8-0.4-3.9-1.1c-0.9-0.7-1.4-1.7-1.4-3c0-0.7,0.2-1.5,0.6-2.1
		c0.4-0.6,1-1.1,1.7-1.5c1.2-0.4,2.5-0.6,3.8-0.9c2.5-0.2,4.9-0.9,7.2-1.7v1.6C138.7,120.2,138.4,121.6,137.9,123.1z"/>
	<path class="st0" d="M120.1,191.1L120.1,191.1c-1.7,0-3.2-1.5-3.2-3.2v-19.7c0-1.7,1.5-3.2,3.2-3.2l0,0c1.7,0,3.2,1.5,3.2,3.2v19.7
		C123.3,189.6,121.8,191.1,120.1,191.1z"/>
	<path class="st0" d="M185.2,188.4L185.2,188.4c0,1.7-1.5,3.2-3.2,3.2H58c-1.7,0-3.2-1.5-3.2-3.2l0,0c0-1.7,1.5-3.2,3.2-3.2H182
		C183.7,185.2,185.2,186.6,185.2,188.4z"/>
</g>
</svg>
