<?xml version="1.0" encoding="utf-8"?>
<!-- Generator: Adobe Illustrator 19.0.0, SVG Export Plug-In . SVG Version: 6.00 Build 0)  -->
<svg version="1.1" id="Capa_1" xmlns="http://www.w3.org/2000/svg" xmlns:xlink="http://www.w3.org/1999/xlink" x="0px" y="0px"
	 viewBox="176 -128.9 512 512" style="enable-background:new 176 -128.9 512 512;" xml:space="preserve">
<style type="text/css">
	.st0{fill:#FC552B;}
</style>
<g>
	<polygon class="st0" points="466,201.1 466,202.3 256,202.3 256,201.1 256,192.6 256,190.9 466,190.9 466,192.6 	"/>
	<polygon class="st0" points="466,61.1 466,62.3 256,62.3 256,61.1 256,52.6 256,50.9 466,50.9 466,52.6 	"/>
	<path class="st0" d="M506,207.1h-40v3H256v-3h-40c-5.5,0-10,4.5-10,10v100c0,5.5,4.5,10,10,10h290c5.5,0,10-4.5,10-10v-100
		C516,211.6,511.5,207.1,506,207.1z M499,310.1H223v-86h16v3h244v-3h16V310.1z"/>
	<path class="st0" d="M242.5,282.1c0,3.3-2.7,6-6,6s-6-2.7-6-6v-30c0-3.3,2.7-6,6-6s6,2.7,6,6V282.1z"/>
	<path class="st0" d="M268.9,282.1c0,3.3-2.7,6-6,6s-6-2.7-6-6v-30c0-3.3,2.7-6,6-6s6,2.7,6,6V282.1z"/>
	<path class="st0" d="M295.3,282.1c0,3.3-2.7,6-6,6s-6-2.7-6-6v-30c0-3.3,2.7-6,6-6s6,2.7,6,6V282.1z"/>
	<path class="st0" d="M321.7,282.1c0,3.3-2.7,6-6,6s-6-2.7-6-6v-30c0-3.3,2.7-6,6-6s6,2.7,6,6V282.1z"/>
	<path class="st0" d="M348.1,282.1c0,3.3-2.7,6-6,6s-6-2.7-6-6v-30c0-3.3,2.7-6,6-6s6,2.7,6,6V282.1z"/>
	<circle class="st0" cx="410.5" cy="267.1" r="17"/>
	<circle class="st0" cx="468.5" cy="267.1" r="17"/>
	<path class="st0" d="M242.5,142.1c0,3.3-2.7,6-6,6s-6-2.7-6-6v-30c0-3.3,2.7-6,6-6s6,2.7,6,6V142.1z"/>
	<path class="st0" d="M268.9,142.1c0,3.3-2.7,6-6,6s-6-2.7-6-6v-30c0-3.3,2.7-6,6-6s6,2.7,6,6V142.1z"/>
	<path class="st0" d="M295.3,142.1c0,3.3-2.7,6-6,6s-6-2.7-6-6v-30c0-3.3,2.7-6,6-6s6,2.7,6,6V142.1z"/>
	<path class="st0" d="M321.7,142.1c0,3.3-2.7,6-6,6s-6-2.7-6-6v-30c0-3.3,2.7-6,6-6s6,2.7,6,6V142.1z"/>
	<path class="st0" d="M348.1,142.1c0,3.3-2.7,6-6,6s-6-2.7-6-6v-30c0-3.3,2.7-6,6-6s6,2.7,6,6V142.1z"/>
	<circle class="st0" cx="410.5" cy="127.1" r="17"/>
	<circle class="st0" cx="468.5" cy="127.1" r="17"/>
	<path class="st0" d="M506-72.9H216c-5.5,0-10,4.5-10,10v100c0,5.5,4.5,10,10,10h40v-4h210v4h40c5.5,0,10-4.5,10-10v-100
		C516-68.4,511.5-72.9,506-72.9z M499,30.1h-16v-4H239v4h-16v-86h276V30.1z"/>
	<path class="st0" d="M242.5,2.1c0,3.3-2.7,6-6,6s-6-2.7-6-6v-30c0-3.3,2.7-6,6-6s6,2.7,6,6V2.1z"/>
	<path class="st0" d="M268.9,2.1c0,3.3-2.7,6-6,6s-6-2.7-6-6v-30c0-3.3,2.7-6,6-6s6,2.7,6,6V2.1z"/>
	<path class="st0" d="M295.3,2.1c0,3.3-2.7,6-6,6s-6-2.7-6-6v-30c0-3.3,2.7-6,6-6s6,2.7,6,6V2.1z"/>
	<path class="st0" d="M321.7,2.1c0,3.3-2.7,6-6,6s-6-2.7-6-6v-30c0-3.3,2.7-6,6-6s6,2.7,6,6V2.1z"/>
	<path class="st0" d="M348.1,2.1c0,3.3-2.7,6-6,6s-6-2.7-6-6v-30c0-3.3,2.7-6,6-6s6,2.7,6,6V2.1z"/>
	<circle class="st0" cx="410.5" cy="-12.9" r="17"/>
	<circle class="st0" cx="468.5" cy="-12.9" r="17"/>
	<path class="st0" d="M620-46.9v-12h-55c-3.3,0-6,2.7-6,5.9l0,0v174h-38v12h38v174c0,3.3,2.7,6,6,6h55v-12h-49V133h49v-12h-49V-47
		L620-46.9L620-46.9z"/>
	<circle class="st0" cx="638" cy="-52.9" r="20"/>
	<circle class="st0" cx="638" cy="127.1" r="20"/>
	<circle class="st0" cx="638" cy="307.1" r="20"/>
	<path class="st0" d="M506,67.1h-40v3H256v-3h-40c-5.5,0-10,4.5-10,10v100c0,5.5,4.5,10,10,10h40v-4h210v4h40c5.5,0,10-4.5,10-10
		v-100C516,71.6,511.5,67.1,506,67.1z M499,170.1h-16v-4H239v4h-16v-86h16v3h244v-3h16V170.1z"/>
</g>
</svg>
