<?xml version="1.0" encoding="utf-8"?>
<!-- Generator: Adobe Illustrator 19.0.0, SVG Export Plug-In . SVG Version: 6.00 Build 0)  -->
<svg version="1.1" id="Capa_1" xmlns="http://www.w3.org/2000/svg" xmlns:xlink="http://www.w3.org/1999/xlink" x="0px" y="0px"
	 viewBox="176 -128.9 512 512" style="enable-background:new 176 -128.9 512 512;" xml:space="preserve">
<style type="text/css">
	.st0{fill:#FC552B;}
</style>
<g>
	<path class="st0" d="M344-104.9H216c-8.8,0-16,7.2-16,16v80c0,8.8,7.2,16,16,16h128c8.8,0,16-7.2,16-16v-80
		C360-97.7,352.8-104.9,344-104.9z M343-9.9H217v-78h126V-9.9z"/>
	<rect x="264" y="7.1" class="st0" width="32" height="40"/>
	<path class="st0" d="M648-104.9H520c-8.8,0-16,7.2-16,16v80c0,8.8,7.2,16,16,16h128c8.8,0,16-7.2,16-16v-80
		C664-97.7,656.8-104.9,648-104.9z M647-9.9H521v-78h126V-9.9z"/>
	<rect x="568" y="7.1" class="st0" width="32" height="40"/>
	<path class="st0" d="M344,207.1H216c-8.8,0-16,7.2-16,16v80c0,8.8,7.2,16,16,16h128c8.8,0,16-7.2,16-16v-80
		C360,214.3,352.8,207.1,344,207.1z M343,302.1H217v-78h126V302.1z"/>
	<rect x="264" y="319.1" class="st0" width="32" height="40"/>
	<path class="st0" d="M648,207.1H520c-8.8,0-16,7.2-16,16v80c0,8.8,7.2,16,16,16h128c8.8,0,16-7.2,16-16v-80
		C664,214.3,656.8,207.1,648,207.1z M647,302.1H521v-78h126V302.1z"/>
	<rect x="568" y="319.1" class="st0" width="32" height="40"/>
	<circle class="st0" cx="432" cy="295.1" r="16"/>
	<circle class="st0" cx="432" cy="-40.9" r="16"/>
	<rect x="272" y="-24.9" class="st0" width="16" height="16"/>
	<rect x="296" y="-24.9" class="st0" width="16" height="16"/>
	<rect x="248" y="-24.9" class="st0" width="16" height="16"/>
	<rect x="576" y="-24.9" class="st0" width="16" height="16"/>
	<rect x="600" y="-24.9" class="st0" width="16" height="16"/>
	<rect x="552" y="-24.9" class="st0" width="16" height="16"/>
	<rect x="272" y="287.1" class="st0" width="16" height="16"/>
	<rect x="296" y="287.1" class="st0" width="16" height="16"/>
	<rect x="248" y="287.1" class="st0" width="16" height="16"/>
	<rect x="576" y="287.1" class="st0" width="16" height="16"/>
	<rect x="600" y="287.1" class="st0" width="16" height="16"/>
	<rect x="552" y="287.1" class="st0" width="16" height="16"/>
	<path class="st0" d="M440,272.6v-89.5h-16v89.5c-6.8,2.4-12.1,7.8-14.5,14.5H376v16h33.5c4.3,12.4,17.9,19,30.4,14.7
		c6.9-2.4,12.3-7.8,14.7-14.7H488v-16h-33.5C452.1,280.3,446.8,275,440,272.6z M432,303.1c-4.4,0-8-3.6-8-8s3.6-8,8-8s8,3.6,8,8
		S436.4,303.1,432,303.1z"/>
	<path class="st0" d="M424-18.4v89.5h16v-89.5c6.8-2.4,12.1-7.8,14.5-14.5H488v-16h-33.5c-4.3-12.4-17.9-19-30.4-14.7
		c-6.9,2.4-12.3,7.8-14.7,14.7H376v16h33.5C411.9-26.1,417.2-20.8,424-18.4z M432-48.9c4.4,0,8,3.6,8,8s-3.6,8-8,8s-8-3.6-8-8
		S427.6-48.9,432-48.9z"/>
	<path class="st0" d="M584,87.1H280c-8.8,0-16,7.2-16,16v48c0,8.8,7.2,16,16,16h304c8.8,0,16-7.2,16-16v-48
		C600,94.3,592.8,87.1,584,87.1z M304,151.1h-16v-16h16V151.1z M304,119.1h-16v-16h16V119.1z M328,151.1h-16v-16h16V151.1z
		 M328,119.1h-16v-16h16V119.1z M352,151.1h-16v-16h16V151.1z M352,119.1h-16v-16h16V119.1z M376,151.1h-16v-16h16V151.1z
		 M376,119.1h-16v-16h16V119.1z M400,151.1h-16v-16h16V151.1z M400,119.1h-16v-16h16V119.1z M424,151.1h-16v-16h16V151.1z
		 M424,119.1h-16v-16h16V119.1z M568,143.1H456v-32h112V143.1z"/>
	<rect x="240" y="31.1" class="st0" width="80" height="16"/>
	<rect x="544" y="31.1" class="st0" width="80" height="16"/>
	<rect x="240" y="343.1" class="st0" width="80" height="16"/>
	<rect x="544" y="343.1" class="st0" width="80" height="16"/>
</g>
</svg>
